<svg width="168" height="160" viewBox="0 0 168 160" fill="none" xmlns="http://www.w3.org/2000/svg">
<path d="M84.7759 50.1492V83.5821" stroke="white" stroke-linecap="round" stroke-linejoin="round"/>
<path d="M77.6123 76.4185L84.7765 83.5826L91.9407 76.4185" stroke="white" stroke-linecap="round" stroke-linejoin="round"/>
<path d="M114.627 83.5818H105.075C102.438 83.5818 100.298 85.7215 100.298 88.3579C100.298 90.9943 98.1588 93.134 95.5223 93.134H74.0298C71.3934 93.134 69.2537 90.9943 69.2537 88.3579C69.2537 85.7215 67.114 83.5818 64.4775 83.5818H54.9253" stroke="white" stroke-linecap="round" stroke-linejoin="round"/>
<path d="M54.9253 83.5818V106.268C54.9253 108.248 56.5301 109.85 58.5074 109.85H111.045C113.022 109.85 114.627 108.248 114.627 106.268V83.5818" stroke="white" stroke-linecap="round" stroke-linejoin="round"/>
<path d="M89.5522 62.0896H100.299L114.627 83.5821" stroke="white" stroke-linecap="round" stroke-linejoin="round"/>
<path d="M54.9253 83.5821L69.2536 62.0896H79.9999" stroke="white" stroke-linecap="round" stroke-linejoin="round"/>
</svg>
