<svg width="40" height="40" viewBox="0 0 40 40" fill="none" xmlns="http://www.w3.org/2000/svg">
<path d="M28.2688 9.97744C28.4863 9.32226 28.1315 8.61479 27.4763 8.39726C26.8212 8.17974 26.1137 8.53456 25.8962 9.18974C25.6497 9.93222 25.3895 10.923 25.1968 11.7105C23.9698 11.7525 22.7875 11.7406 21.752 11.6698C21.0633 11.6227 20.4667 12.1428 20.4197 12.8316C20.3725 13.5203 20.8927 14.1169 21.5815 14.164C22.52 14.2281 23.5652 14.248 24.6552 14.226C24.4155 15.5022 24.253 16.6413 24.1547 17.6658C22.1298 18.7364 20.7197 20.1734 19.9238 21.6864C18.902 23.6293 18.8228 25.9471 20.266 27.4244C21.2188 28.3984 22.6132 28.4916 23.8148 28.2336C24.4908 28.0886 25.1908 27.8198 25.882 27.4433C25.892 27.4694 25.9018 27.4953 25.9113 27.5208C26.1528 28.1674 26.8728 28.4961 27.5197 28.2548C28.1663 28.0133 28.495 27.2933 28.2537 26.6464C28.1593 26.3938 28.0642 26.1609 27.9697 25.9401C29.6752 24.3804 31.1608 22.0928 31.7785 19.1956C32.8412 19.7156 33.5605 20.5881 33.9083 21.5276C34.2872 22.5504 34.2632 23.7149 33.7465 24.7821C33.2338 25.8411 32.1923 26.8896 30.3878 27.5836C29.7435 27.8313 29.422 28.5544 29.6697 29.1989C29.9175 29.8433 30.6407 30.1648 31.285 29.9169C33.596 29.0284 35.1695 27.5799 35.9967 25.8716C36.8197 24.1718 36.86 22.2991 36.2528 20.6594C35.564 18.7996 34.0853 17.3088 32.079 16.62C32.082 16.4975 32.0835 16.3743 32.0835 16.2502C32.0835 15.5599 31.5238 15.0002 30.8335 15.0002C30.158 15.0002 29.6077 15.5361 29.5843 16.2059C28.7095 16.199 27.7758 16.3239 26.7973 16.6023C26.9027 15.843 27.0435 15.0127 27.2257 14.1022C29.1995 13.9532 31.1648 13.6812 32.786 13.3004C33.458 13.1425 33.8748 12.4697 33.717 11.7977C33.559 11.1256 32.8862 10.7088 32.2142 10.8667C30.9342 11.1674 29.3978 11.3965 27.8175 11.5436C27.9608 10.9939 28.1198 10.4261 28.2688 9.97744ZM22.1365 22.8503C22.5137 22.1331 23.1362 21.3729 24.0463 20.6839C24.0748 21.5024 24.1555 22.2261 24.2743 22.8791C24.4315 23.7436 24.6675 24.5021 24.918 25.1663C24.4092 25.4518 23.8653 25.6659 23.2902 25.7893C22.4822 25.9628 22.1447 25.7699 22.0528 25.6761C21.6548 25.2686 21.3972 24.2558 22.1365 22.8503ZM29.3265 18.7043C28.9782 20.3154 28.1592 22.0744 26.9705 23.4513C26.8825 23.1451 26.8028 22.8104 26.734 22.4318C26.5855 21.6158 26.501 20.6119 26.5477 19.3216C26.7302 19.2516 26.9185 19.1843 27.1127 19.1201C27.9152 18.8553 28.654 18.7254 29.3265 18.7043Z" fill="white"/>
<path d="M13.2681 10.8833C9.5353 9.79728 6.59623 11.1352 5.64188 11.6618C5.03743 11.9953 4.81783 12.7557 5.15137 13.3602C5.4849 13.9646 6.24526 14.1842 6.84971 13.8507C7.5245 13.4783 9.74345 12.462 12.5683 13.2834C13.8567 13.6617 14.3984 14.3486 14.6756 15.0434C14.8964 15.5967 14.9659 16.1949 14.9877 16.7804C14.5389 16.655 14.02 16.5304 13.4508 16.4292C11.5632 16.0937 8.97988 15.9915 6.57992 17.1411C3.93617 18.4074 3.02915 21.0016 3.40986 23.3027C3.78396 25.5639 5.43721 27.7471 8.07683 28.2221C10.4593 28.6509 12.7524 27.7956 14.3391 26.9531C14.5702 26.8304 14.7901 26.7059 14.9975 26.5826V27.0836C14.9975 27.7739 15.5572 28.3336 16.2475 28.3336C16.9378 28.3336 17.4975 27.7739 17.4975 27.0836V17.4341C17.498 16.6772 17.4988 15.373 16.9977 14.1169C16.4462 12.735 15.3239 11.4864 13.2708 10.8841L13.2681 10.8833ZM13.0134 18.8906C13.819 19.0339 14.5094 19.2337 14.9975 19.3979V23.5746C14.9437 23.6154 14.8852 23.6591 14.8223 23.7051C14.421 23.9987 13.8485 24.3829 13.1666 24.7451C11.7652 25.4892 10.0837 26.0431 8.51963 25.7616C7.11233 25.5084 6.11192 24.3186 5.87633 22.8947C5.64735 21.5106 6.17463 20.1072 7.65992 19.3957C9.38898 18.5676 11.3694 18.5984 13.0134 18.8906Z" fill="white"/>
</svg>
