<svg width="381" height="219" viewBox="0 0 381 219" fill="none" xmlns="http://www.w3.org/2000/svg">
<rect width="381" height="219" rx="4" fill="#EEEEEE"/>
<line x1="60" y1="29" x2="60" y2="175" stroke="black" stroke-opacity="0.7" stroke-width="2"/>
<path d="M33.8475 30.156L34.8435 30.18C35.1955 30.18 35.4715 30.176 35.6715 30.168C35.6955 29.512 35.7075 28.936 35.7075 28.44L35.6955 27.264C35.6955 27.16 35.6675 27.108 35.6115 27.108L35.4675 27.18C35.2195 27.452 34.9555 27.808 34.6755 28.248C34.4035 28.688 34.1915 29.064 34.0395 29.376L33.8115 29.832C33.7795 29.904 33.7635 29.976 33.7635 30.048C33.7635 30.12 33.7915 30.156 33.8475 30.156ZM35.6115 31.404L34.5795 31.392L32.4195 31.416C32.2435 31.416 32.1555 31.336 32.1555 31.176L32.1795 31.044C32.6915 29.78 33.5515 28.344 34.7595 26.736C35.1435 26.216 35.4995 25.776 35.8275 25.416L35.9835 25.26C36.1915 25.044 36.4995 24.936 36.9075 24.936C37.1235 24.936 37.2315 25 37.2315 25.128C37.1035 26.256 37.0395 27.404 37.0395 28.572V30.096C37.1435 30.088 37.2555 30.08 37.3755 30.072L37.6515 30.048C37.7075 30.048 37.7435 30.048 37.7595 30.048C37.8235 30.048 37.8555 30.068 37.8555 30.108C37.8555 30.244 37.7875 30.464 37.6515 30.768C37.5155 31.072 37.3755 31.256 37.2315 31.32L37.0635 31.356C37.0795 32.26 37.1195 32.868 37.1835 33.18C37.1835 33.388 37.0235 33.54 36.7035 33.636C36.3915 33.732 36.0915 33.78 35.8035 33.78C35.5235 33.78 35.3835 33.716 35.3835 33.588C35.3835 33.572 35.4075 33.412 35.4555 33.108C35.5035 32.804 35.5555 32.236 35.6115 31.404ZM43.0322 29.4C43.0322 27.008 42.6082 25.812 41.7602 25.812C40.9202 25.812 40.5002 27.008 40.5002 29.4C40.5002 31.784 40.9202 32.976 41.7602 32.976C42.6082 32.976 43.0322 31.784 43.0322 29.4ZM43.6082 33.108C43.4082 33.324 43.1522 33.492 42.8402 33.612C42.5282 33.732 42.1482 33.792 41.7002 33.792C41.2602 33.792 40.8602 33.708 40.5002 33.54C40.1402 33.364 39.8602 33.148 39.6602 32.892C39.4682 32.628 39.3122 32.3 39.1922 31.908C39.0722 31.516 38.9962 31.144 38.9642 30.792C38.9322 30.44 38.9162 30.028 38.9162 29.556C38.9162 29.076 38.9362 28.636 38.9762 28.236C39.0162 27.836 39.0962 27.428 39.2162 27.012C39.3362 26.588 39.4962 26.236 39.6962 25.956C39.9042 25.676 40.1842 25.448 40.5362 25.272C40.8882 25.088 41.2882 24.996 41.7362 24.996C42.1922 24.996 42.5842 25.064 42.9122 25.2C43.2402 25.336 43.5042 25.532 43.7042 25.788C43.9042 26.036 44.0682 26.296 44.1962 26.568C44.3242 26.84 44.4162 27.16 44.4722 27.528C44.5682 28.152 44.6162 28.712 44.6162 29.208C44.6162 29.696 44.6002 30.1 44.5682 30.42C44.5442 30.74 44.4962 31.08 44.4242 31.44C44.3602 31.792 44.2562 32.104 44.1122 32.376C43.9762 32.64 43.8082 32.884 43.6082 33.108ZM50.0541 29.4C50.0541 27.008 49.6301 25.812 48.7821 25.812C47.9421 25.812 47.5221 27.008 47.5221 29.4C47.5221 31.784 47.9421 32.976 48.7821 32.976C49.6301 32.976 50.0541 31.784 50.0541 29.4ZM50.6301 33.108C50.4301 33.324 50.1741 33.492 49.8621 33.612C49.5501 33.732 49.1701 33.792 48.7221 33.792C48.2821 33.792 47.8821 33.708 47.5221 33.54C47.1621 33.364 46.8821 33.148 46.6821 32.892C46.4901 32.628 46.3341 32.3 46.2141 31.908C46.0941 31.516 46.0181 31.144 45.9861 30.792C45.9541 30.44 45.9381 30.028 45.9381 29.556C45.9381 29.076 45.9581 28.636 45.9981 28.236C46.0381 27.836 46.1181 27.428 46.2381 27.012C46.3581 26.588 46.5181 26.236 46.7181 25.956C46.9261 25.676 47.2061 25.448 47.5581 25.272C47.9101 25.088 48.3101 24.996 48.7581 24.996C49.2141 24.996 49.6061 25.064 49.9341 25.2C50.2621 25.336 50.5261 25.532 50.7261 25.788C50.9261 26.036 51.0901 26.296 51.2181 26.568C51.3461 26.84 51.4381 27.16 51.4941 27.528C51.5901 28.152 51.6381 28.712 51.6381 29.208C51.6381 29.696 51.6221 30.1 51.5901 30.42C51.5661 30.74 51.5181 31.08 51.4461 31.44C51.3821 31.792 51.2781 32.104 51.1341 32.376C50.9981 32.64 50.8301 32.884 50.6301 33.108Z" fill="black" fill-opacity="0.85"/>
<line x1="60" y1="29.6" x2="344" y2="29.6" stroke="black" stroke-opacity="0.15" stroke-dasharray="2 2"/>
<path d="M33.8215 65.5399C33.7655 65.5399 33.7375 65.5199 33.7375 65.4799V65.4559C33.7615 64.9439 33.9055 64.6879 34.1695 64.6879H34.4095C34.6975 64.6879 34.9455 64.6399 35.1535 64.5439C35.3695 64.4479 35.5335 64.3359 35.6455 64.2079C35.7575 64.0719 35.8455 63.9119 35.9095 63.7279C36.0055 63.4639 36.0535 63.2119 36.0535 62.9719C36.0535 62.7239 36.0175 62.5279 35.9455 62.3839C35.8735 62.2399 35.7815 62.1399 35.6695 62.0839C35.4935 61.9959 35.2935 61.9519 35.0695 61.9519C34.8455 61.9519 34.6415 62.0359 34.4575 62.2039C34.2735 62.3719 34.1815 62.5959 34.1815 62.8759C34.1815 62.9959 34.2055 63.1159 34.2535 63.2359C34.3015 63.3559 34.3255 63.4279 34.3255 63.4519C34.3255 63.5719 34.2575 63.6639 34.1215 63.7279C33.9855 63.7839 33.8255 63.8119 33.6415 63.8119C33.4655 63.8119 33.3095 63.7519 33.1735 63.6319C33.0375 63.5119 32.9535 63.3959 32.9215 63.2839C32.8975 63.1639 32.8855 63.0439 32.8855 62.9239C32.8855 62.5319 33.0215 62.2039 33.2935 61.9399C33.7815 61.4759 34.4695 61.2439 35.3575 61.2439C35.5415 61.2439 35.7695 61.2799 36.0415 61.3519C36.3215 61.4159 36.5535 61.5039 36.7375 61.6159C36.9215 61.7199 37.0895 61.8919 37.2415 62.1319C37.3935 62.3719 37.4695 62.6479 37.4695 62.9599C37.4695 63.2639 37.4175 63.5359 37.3135 63.7759C37.2175 64.0079 37.0975 64.1919 36.9535 64.3279C36.6495 64.6079 36.3815 64.7759 36.1495 64.8319L36.0055 64.8799C35.9575 64.9119 35.9335 64.9439 35.9335 64.9759C35.9335 64.9999 35.9575 65.0159 36.0055 65.0239C36.0615 65.0319 36.1255 65.0479 36.1975 65.0719C36.2775 65.0879 36.4175 65.1479 36.6175 65.2519C36.8175 65.3479 36.9935 65.4719 37.1455 65.6239C37.2975 65.7759 37.4335 65.9999 37.5535 66.2959C37.6815 66.5839 37.7455 66.9519 37.7455 67.3999C37.7455 67.8399 37.6495 68.2479 37.4575 68.6239C37.2655 68.9919 37.0295 69.2599 36.7495 69.4279C36.1815 69.7799 35.6775 69.9639 35.2375 69.9799L34.9495 69.9919C34.1895 69.9919 33.6015 69.8359 33.1855 69.5239C32.7695 69.2039 32.5615 68.7839 32.5615 68.2639C32.5615 67.8639 32.6695 67.5079 32.8855 67.1959C33.1095 66.8839 33.4055 66.7279 33.7735 66.7279C33.9735 66.7279 34.1535 66.7719 34.3135 66.8599C34.4815 66.9479 34.5655 67.0759 34.5655 67.2439C34.5655 67.3319 34.5295 67.3919 34.4575 67.4239C34.3375 67.4959 34.2455 67.5999 34.1815 67.7359C34.1175 67.8639 34.0815 67.9759 34.0735 68.0719L34.0615 68.2159C34.0615 68.5039 34.1415 68.7399 34.3015 68.9239C34.4615 69.0999 34.6695 69.1879 34.9255 69.1879C35.7575 69.1879 36.1735 68.5039 36.1735 67.1359C36.1735 66.5679 35.9975 66.1559 35.6455 65.8999C35.2935 65.6439 34.8335 65.5159 34.2655 65.5159C34.2175 65.5159 34.1695 65.5159 34.1215 65.5159L33.8455 65.5399H33.8215ZM43.0322 65.5999C43.0322 63.2079 42.6082 62.0119 41.7602 62.0119C40.9202 62.0119 40.5002 63.2079 40.5002 65.5999C40.5002 67.9839 40.9202 69.1759 41.7602 69.1759C42.6082 69.1759 43.0322 67.9839 43.0322 65.5999ZM43.6082 69.3079C43.4082 69.5239 43.1522 69.6919 42.8402 69.8119C42.5282 69.9319 42.1482 69.9919 41.7002 69.9919C41.2602 69.9919 40.8602 69.9079 40.5002 69.7399C40.1402 69.5639 39.8602 69.3479 39.6602 69.0919C39.4682 68.8279 39.3122 68.4999 39.1922 68.1079C39.0722 67.7159 38.9962 67.3439 38.9642 66.9919C38.9322 66.6399 38.9162 66.2279 38.9162 65.7559C38.9162 65.2759 38.9362 64.8359 38.9762 64.4359C39.0162 64.0359 39.0962 63.6279 39.2162 63.2119C39.3362 62.7879 39.4962 62.4359 39.6962 62.1559C39.9042 61.8759 40.1842 61.6479 40.5362 61.4719C40.8882 61.2879 41.2882 61.1959 41.7362 61.1959C42.1922 61.1959 42.5842 61.2639 42.9122 61.3999C43.2402 61.5359 43.5042 61.7319 43.7042 61.9879C43.9042 62.2359 44.0682 62.4959 44.1962 62.7679C44.3242 63.0399 44.4162 63.3599 44.4722 63.7279C44.5682 64.3519 44.6162 64.9119 44.6162 65.4079C44.6162 65.8959 44.6002 66.2999 44.5682 66.6199C44.5442 66.9399 44.4962 67.2799 44.4242 67.6399C44.3602 67.9919 44.2562 68.3039 44.1122 68.5759C43.9762 68.8399 43.8082 69.0839 43.6082 69.3079ZM50.0541 65.5999C50.0541 63.2079 49.6301 62.0119 48.7821 62.0119C47.9421 62.0119 47.5221 63.2079 47.5221 65.5999C47.5221 67.9839 47.9421 69.1759 48.7821 69.1759C49.6301 69.1759 50.0541 67.9839 50.0541 65.5999ZM50.6301 69.3079C50.4301 69.5239 50.1741 69.6919 49.8621 69.8119C49.5501 69.9319 49.1701 69.9919 48.7221 69.9919C48.2821 69.9919 47.8821 69.9079 47.5221 69.7399C47.1621 69.5639 46.8821 69.3479 46.6821 69.0919C46.4901 68.8279 46.3341 68.4999 46.2141 68.1079C46.0941 67.7159 46.0181 67.3439 45.9861 66.9919C45.9541 66.6399 45.9381 66.2279 45.9381 65.7559C45.9381 65.2759 45.9581 64.8359 45.9981 64.4359C46.0381 64.0359 46.1181 63.6279 46.2381 63.2119C46.3581 62.7879 46.5181 62.4359 46.7181 62.1559C46.9261 61.8759 47.2061 61.6479 47.5581 61.4719C47.9101 61.2879 48.3101 61.1959 48.7581 61.1959C49.2141 61.1959 49.6061 61.2639 49.9341 61.3999C50.2621 61.5359 50.5261 61.7319 50.7261 61.9879C50.9261 62.2359 51.0901 62.4959 51.2181 62.7679C51.3461 63.0399 51.4381 63.3599 51.4941 63.7279C51.5901 64.3519 51.6381 64.9119 51.6381 65.4079C51.6381 65.8959 51.6221 66.2999 51.5901 66.6199C51.5661 66.9399 51.5181 67.2799 51.4461 67.6399C51.3821 67.9919 51.2781 68.3039 51.1341 68.5759C50.9981 68.8399 50.8301 69.0839 50.6301 69.3079Z" fill="black" fill-opacity="0.85"/>
<line x1="60" y1="65.7999" x2="344" y2="65.7999" stroke="black" stroke-opacity="0.15" stroke-dasharray="2 2"/>
<path d="M35.8601 106.12L33.9521 106.012C33.4961 106.012 33.1241 106.076 32.8361 106.204C32.7801 106.228 32.7321 106.24 32.6921 106.24C32.5881 106.24 32.5361 106.108 32.5361 105.844C32.5361 105.572 32.6121 105.252 32.7641 104.884C32.9161 104.508 33.1001 104.16 33.3161 103.84C33.7721 103.144 34.1681 102.616 34.5041 102.256L34.7321 102.016C35.1721 101.544 35.5241 101.08 35.7881 100.624C36.0601 100.168 36.1961 99.672 36.1961 99.136C36.1961 98.632 36.0001 98.312 35.6081 98.176C35.5201 98.144 35.3961 98.128 35.2361 98.128C35.0761 98.12 34.9241 98.148 34.7801 98.212C34.6361 98.276 34.5281 98.356 34.4561 98.452C34.3201 98.652 34.2481 98.836 34.2401 99.004C34.2241 99.292 34.2881 99.484 34.4321 99.58L34.4921 99.628C34.6601 99.7 34.7441 99.808 34.7441 99.952V99.964C34.7441 100.18 34.6801 100.352 34.5521 100.48C34.4241 100.6 34.2961 100.668 34.1681 100.684L33.9641 100.708C33.7241 100.708 33.5201 100.664 33.3521 100.576C33.1921 100.488 33.0801 100.376 33.0161 100.24C32.8961 100 32.8361 99.76 32.8361 99.52C32.8361 98.84 33.0921 98.308 33.6041 97.924C34.1241 97.54 34.7161 97.348 35.3801 97.348C36.0441 97.348 36.6041 97.52 37.0601 97.864C37.5161 98.208 37.7441 98.688 37.7441 99.304C37.7441 100.136 37.3881 100.868 36.6761 101.5L36.4361 101.704C35.3641 102.616 34.6601 103.36 34.3241 103.936C34.2041 104.136 34.1441 104.304 34.1441 104.44C34.1441 104.528 34.2201 104.584 34.3721 104.608C34.5321 104.624 34.8361 104.632 35.2841 104.632C36.4121 104.632 37.1441 104.448 37.4801 104.08C37.5201 104.056 37.5601 104.044 37.6001 104.044C37.6961 104.044 37.7441 104.18 37.7441 104.452C37.7441 104.724 37.6881 105.016 37.5761 105.328C37.4641 105.632 37.3001 105.848 37.0841 105.976C36.9321 106.072 36.5241 106.12 35.8601 106.12ZM43.0322 101.8C43.0322 99.408 42.6082 98.212 41.7602 98.212C40.9202 98.212 40.5002 99.408 40.5002 101.8C40.5002 104.184 40.9202 105.376 41.7602 105.376C42.6082 105.376 43.0322 104.184 43.0322 101.8ZM43.6082 105.508C43.4082 105.724 43.1522 105.892 42.8402 106.012C42.5282 106.132 42.1482 106.192 41.7002 106.192C41.2602 106.192 40.8602 106.108 40.5002 105.94C40.1402 105.764 39.8602 105.548 39.6602 105.292C39.4682 105.028 39.3122 104.7 39.1922 104.308C39.0722 103.916 38.9962 103.544 38.9642 103.192C38.9322 102.84 38.9162 102.428 38.9162 101.956C38.9162 101.476 38.9362 101.036 38.9762 100.636C39.0162 100.236 39.0962 99.828 39.2162 99.412C39.3362 98.988 39.4962 98.636 39.6962 98.356C39.9042 98.076 40.1842 97.848 40.5362 97.672C40.8882 97.488 41.2882 97.396 41.7362 97.396C42.1922 97.396 42.5842 97.464 42.9122 97.6C43.2402 97.736 43.5042 97.932 43.7042 98.188C43.9042 98.436 44.0682 98.696 44.1962 98.968C44.3242 99.24 44.4162 99.56 44.4722 99.928C44.5682 100.552 44.6162 101.112 44.6162 101.608C44.6162 102.096 44.6002 102.5 44.5682 102.82C44.5442 103.14 44.4962 103.48 44.4242 103.84C44.3602 104.192 44.2562 104.504 44.1122 104.776C43.9762 105.04 43.8082 105.284 43.6082 105.508ZM50.0541 101.8C50.0541 99.408 49.6301 98.212 48.7821 98.212C47.9421 98.212 47.5221 99.408 47.5221 101.8C47.5221 104.184 47.9421 105.376 48.7821 105.376C49.6301 105.376 50.0541 104.184 50.0541 101.8ZM50.6301 105.508C50.4301 105.724 50.1741 105.892 49.8621 106.012C49.5501 106.132 49.1701 106.192 48.7221 106.192C48.2821 106.192 47.8821 106.108 47.5221 105.94C47.1621 105.764 46.8821 105.548 46.6821 105.292C46.4901 105.028 46.3341 104.7 46.2141 104.308C46.0941 103.916 46.0181 103.544 45.9861 103.192C45.9541 102.84 45.9381 102.428 45.9381 101.956C45.9381 101.476 45.9581 101.036 45.9981 100.636C46.0381 100.236 46.1181 99.828 46.2381 99.412C46.3581 98.988 46.5181 98.636 46.7181 98.356C46.9261 98.076 47.2061 97.848 47.5581 97.672C47.9101 97.488 48.3101 97.396 48.7581 97.396C49.2141 97.396 49.6061 97.464 49.9341 97.6C50.2621 97.736 50.5261 97.932 50.7261 98.188C50.9261 98.436 51.0901 98.696 51.2181 98.968C51.3461 99.24 51.4381 99.56 51.4941 99.928C51.5901 100.552 51.6381 101.112 51.6381 101.608C51.6381 102.096 51.6221 102.5 51.5901 102.82C51.5661 103.14 51.5181 103.48 51.4461 103.84C51.3821 104.192 51.2781 104.504 51.1341 104.776C50.9981 105.04 50.8301 105.284 50.6301 105.508Z" fill="black" fill-opacity="0.85"/>
<line x1="60" y1="102" x2="344" y2="102" stroke="black" stroke-opacity="0.15" stroke-dasharray="2 2"/>
<path d="M37.2307 137.136L37.2907 141.084C37.2907 141.468 37.2867 141.712 37.2787 141.816C37.2707 142.008 37.1107 142.148 36.7987 142.236C36.4867 142.332 36.2107 142.38 35.9707 142.38C35.7307 142.38 35.6107 142.32 35.6107 142.2C35.6107 142.136 35.6307 141.92 35.6707 141.552C35.8147 140.4 35.8867 139.14 35.8867 137.772L35.8387 135.936C35.7907 135.52 35.5707 135.312 35.1787 135.312L34.9387 135.336C34.8027 135.336 34.7347 135.292 34.7347 135.204C34.7347 135.004 35.0667 134.68 35.7307 134.232C36.4027 133.784 36.8747 133.56 37.1467 133.56C37.2747 133.56 37.3387 133.644 37.3387 133.812C37.3387 133.972 37.3187 134.396 37.2787 135.084C37.2467 135.772 37.2307 136.456 37.2307 137.136ZM43.0322 138C43.0322 135.608 42.6082 134.412 41.7602 134.412C40.9202 134.412 40.5002 135.608 40.5002 138C40.5002 140.384 40.9202 141.576 41.7602 141.576C42.6082 141.576 43.0322 140.384 43.0322 138ZM43.6082 141.708C43.4082 141.924 43.1522 142.092 42.8402 142.212C42.5282 142.332 42.1482 142.392 41.7002 142.392C41.2602 142.392 40.8602 142.308 40.5002 142.14C40.1402 141.964 39.8602 141.748 39.6602 141.492C39.4682 141.228 39.3122 140.9 39.1922 140.508C39.0722 140.116 38.9962 139.744 38.9642 139.392C38.9322 139.04 38.9162 138.628 38.9162 138.156C38.9162 137.676 38.9362 137.236 38.9762 136.836C39.0162 136.436 39.0962 136.028 39.2162 135.612C39.3362 135.188 39.4962 134.836 39.6962 134.556C39.9042 134.276 40.1842 134.048 40.5362 133.872C40.8882 133.688 41.2882 133.596 41.7362 133.596C42.1922 133.596 42.5842 133.664 42.9122 133.8C43.2402 133.936 43.5042 134.132 43.7042 134.388C43.9042 134.636 44.0682 134.896 44.1962 135.168C44.3242 135.44 44.4162 135.76 44.4722 136.128C44.5682 136.752 44.6162 137.312 44.6162 137.808C44.6162 138.296 44.6002 138.7 44.5682 139.02C44.5442 139.34 44.4962 139.68 44.4242 140.04C44.3602 140.392 44.2562 140.704 44.1122 140.976C43.9762 141.24 43.8082 141.484 43.6082 141.708ZM50.0541 138C50.0541 135.608 49.6301 134.412 48.7821 134.412C47.9421 134.412 47.5221 135.608 47.5221 138C47.5221 140.384 47.9421 141.576 48.7821 141.576C49.6301 141.576 50.0541 140.384 50.0541 138ZM50.6301 141.708C50.4301 141.924 50.1741 142.092 49.8621 142.212C49.5501 142.332 49.1701 142.392 48.7221 142.392C48.2821 142.392 47.8821 142.308 47.5221 142.14C47.1621 141.964 46.8821 141.748 46.6821 141.492C46.4901 141.228 46.3341 140.9 46.2141 140.508C46.0941 140.116 46.0181 139.744 45.9861 139.392C45.9541 139.04 45.9381 138.628 45.9381 138.156C45.9381 137.676 45.9581 137.236 45.9981 136.836C46.0381 136.436 46.1181 136.028 46.2381 135.612C46.3581 135.188 46.5181 134.836 46.7181 134.556C46.9261 134.276 47.2061 134.048 47.5581 133.872C47.9101 133.688 48.3101 133.596 48.7581 133.596C49.2141 133.596 49.6061 133.664 49.9341 133.8C50.2621 133.936 50.5261 134.132 50.7261 134.388C50.9261 134.636 51.0901 134.896 51.2181 135.168C51.3461 135.44 51.4381 135.76 51.4941 136.128C51.5901 136.752 51.6381 137.312 51.6381 137.808C51.6381 138.296 51.6221 138.7 51.5901 139.02C51.5661 139.34 51.5181 139.68 51.4461 140.04C51.3821 140.392 51.2781 140.704 51.1341 140.976C50.9981 141.24 50.8301 141.484 50.6301 141.708Z" fill="black" fill-opacity="0.85"/>
<line x1="60" y1="138.2" x2="344" y2="138.2" stroke="black" stroke-opacity="0.15" stroke-dasharray="2 2"/>
<path d="M50.0541 174.2C50.0541 171.808 49.6301 170.612 48.7821 170.612C47.9421 170.612 47.5221 171.808 47.5221 174.2C47.5221 176.584 47.9421 177.776 48.7821 177.776C49.6301 177.776 50.0541 176.584 50.0541 174.2ZM50.6301 177.908C50.4301 178.124 50.1741 178.292 49.8621 178.412C49.5501 178.532 49.1701 178.592 48.7221 178.592C48.2821 178.592 47.8821 178.508 47.5221 178.34C47.1621 178.164 46.8821 177.948 46.6821 177.692C46.4901 177.428 46.3341 177.1 46.2141 176.708C46.0941 176.316 46.0181 175.944 45.9861 175.592C45.9541 175.24 45.9381 174.828 45.9381 174.356C45.9381 173.876 45.9581 173.436 45.9981 173.036C46.0381 172.636 46.1181 172.228 46.2381 171.812C46.3581 171.388 46.5181 171.036 46.7181 170.756C46.9261 170.476 47.2061 170.248 47.5581 170.072C47.9101 169.888 48.3101 169.796 48.7581 169.796C49.2141 169.796 49.6061 169.864 49.9341 170C50.2621 170.136 50.5261 170.332 50.7261 170.588C50.9261 170.836 51.0901 171.096 51.2181 171.368C51.3461 171.64 51.4381 171.96 51.4941 172.328C51.5901 172.952 51.6381 173.512 51.6381 174.008C51.6381 174.496 51.6221 174.9 51.5901 175.22C51.5661 175.54 51.5181 175.88 51.4461 176.24C51.3821 176.592 51.2781 176.904 51.1341 177.176C50.9981 177.44 50.8301 177.684 50.6301 177.908Z" fill="black" fill-opacity="0.85"/>
<line x1="60" y1="174.4" x2="344" y2="174.4" stroke="black" stroke-opacity="0.15" stroke-dasharray="2 2"/>
<line x1="60.5" y1="30" x2="60.5" y2="174" stroke="black" stroke-opacity="0.15" stroke-dasharray="2 2"/>
<path d="M61.2651 186.8C61.2651 184.408 60.8411 183.212 59.9931 183.212C59.1531 183.212 58.7331 184.408 58.7331 186.8C58.7331 189.184 59.1531 190.376 59.9931 190.376C60.8411 190.376 61.2651 189.184 61.2651 186.8ZM61.8411 190.508C61.6411 190.724 61.3851 190.892 61.0731 191.012C60.7611 191.132 60.3811 191.192 59.9331 191.192C59.4931 191.192 59.0931 191.108 58.7331 190.94C58.3731 190.764 58.0931 190.548 57.8931 190.292C57.7011 190.028 57.5451 189.7 57.4251 189.308C57.3051 188.916 57.2291 188.544 57.1971 188.192C57.1651 187.84 57.1491 187.428 57.1491 186.956C57.1491 186.476 57.1691 186.036 57.2091 185.636C57.2491 185.236 57.3291 184.828 57.4491 184.412C57.5691 183.988 57.7291 183.636 57.9291 183.356C58.1371 183.076 58.4171 182.848 58.7691 182.672C59.1211 182.488 59.5211 182.396 59.9691 182.396C60.4251 182.396 60.8171 182.464 61.1451 182.6C61.4731 182.736 61.7371 182.932 61.9371 183.188C62.1371 183.436 62.3011 183.696 62.4291 183.968C62.5571 184.24 62.6491 184.56 62.7051 184.928C62.8011 185.552 62.8491 186.112 62.8491 186.608C62.8491 187.096 62.8331 187.5 62.8011 187.82C62.7771 188.14 62.7291 188.48 62.6571 188.84C62.5931 189.192 62.4891 189.504 62.3451 189.776C62.2091 190.04 62.0411 190.284 61.8411 190.508Z" fill="black" fill-opacity="0.85"/>
<line x1="131.5" y1="30" x2="131.5" y2="174" stroke="black" stroke-opacity="0.15" stroke-dasharray="2 2"/>
<path d="M124.887 185.936L124.947 189.884C124.947 190.268 124.943 190.512 124.935 190.616C124.927 190.808 124.767 190.948 124.455 191.036C124.143 191.132 123.867 191.18 123.627 191.18C123.387 191.18 123.267 191.12 123.267 191C123.267 190.936 123.287 190.72 123.327 190.352C123.471 189.2 123.543 187.94 123.543 186.572L123.495 184.736C123.447 184.32 123.227 184.112 122.835 184.112L122.595 184.136C122.459 184.136 122.391 184.092 122.391 184.004C122.391 183.804 122.723 183.48 123.387 183.032C124.059 182.584 124.531 182.36 124.803 182.36C124.931 182.36 124.995 182.444 124.995 182.612C124.995 182.772 124.975 183.196 124.935 183.884C124.903 184.572 124.887 185.256 124.887 185.936ZM130.689 186.8C130.689 184.408 130.265 183.212 129.417 183.212C128.577 183.212 128.157 184.408 128.157 186.8C128.157 189.184 128.577 190.376 129.417 190.376C130.265 190.376 130.689 189.184 130.689 186.8ZM131.265 190.508C131.065 190.724 130.809 190.892 130.497 191.012C130.185 191.132 129.805 191.192 129.357 191.192C128.917 191.192 128.517 191.108 128.157 190.94C127.797 190.764 127.517 190.548 127.317 190.292C127.125 190.028 126.969 189.7 126.849 189.308C126.729 188.916 126.653 188.544 126.621 188.192C126.589 187.84 126.573 187.428 126.573 186.956C126.573 186.476 126.593 186.036 126.633 185.636C126.673 185.236 126.753 184.828 126.873 184.412C126.993 183.988 127.153 183.636 127.353 183.356C127.561 183.076 127.841 182.848 128.193 182.672C128.545 182.488 128.945 182.396 129.393 182.396C129.849 182.396 130.241 182.464 130.569 182.6C130.897 182.736 131.161 182.932 131.361 183.188C131.561 183.436 131.725 183.696 131.853 183.968C131.981 184.24 132.073 184.56 132.129 184.928C132.225 185.552 132.273 186.112 132.273 186.608C132.273 187.096 132.257 187.5 132.225 187.82C132.201 188.14 132.153 188.48 132.081 188.84C132.017 189.192 131.913 189.504 131.769 189.776C131.633 190.04 131.465 190.284 131.265 190.508ZM137.711 186.8C137.711 184.408 137.287 183.212 136.439 183.212C135.599 183.212 135.179 184.408 135.179 186.8C135.179 189.184 135.599 190.376 136.439 190.376C137.287 190.376 137.711 189.184 137.711 186.8ZM138.287 190.508C138.087 190.724 137.831 190.892 137.519 191.012C137.207 191.132 136.827 191.192 136.379 191.192C135.939 191.192 135.539 191.108 135.179 190.94C134.819 190.764 134.539 190.548 134.339 190.292C134.147 190.028 133.991 189.7 133.871 189.308C133.751 188.916 133.675 188.544 133.643 188.192C133.611 187.84 133.595 187.428 133.595 186.956C133.595 186.476 133.615 186.036 133.655 185.636C133.695 185.236 133.775 184.828 133.895 184.412C134.015 183.988 134.175 183.636 134.375 183.356C134.583 183.076 134.863 182.848 135.215 182.672C135.567 182.488 135.967 182.396 136.415 182.396C136.871 182.396 137.263 182.464 137.591 182.6C137.919 182.736 138.183 182.932 138.383 183.188C138.583 183.436 138.747 183.696 138.875 183.968C139.003 184.24 139.095 184.56 139.151 184.928C139.247 185.552 139.295 186.112 139.295 186.608C139.295 187.096 139.279 187.5 139.247 187.82C139.223 188.14 139.175 188.48 139.103 188.84C139.039 189.192 138.935 189.504 138.791 189.776C138.655 190.04 138.487 190.284 138.287 190.508Z" fill="black" fill-opacity="0.85"/>
<line x1="202.5" y1="30" x2="202.5" y2="174" stroke="black" stroke-opacity="0.15" stroke-dasharray="2 2"/>
<path d="M195.712 191.12L193.804 191.012C193.348 191.012 192.976 191.076 192.688 191.204C192.632 191.228 192.584 191.24 192.544 191.24C192.44 191.24 192.388 191.108 192.388 190.844C192.388 190.572 192.464 190.252 192.616 189.884C192.768 189.508 192.952 189.16 193.168 188.84C193.624 188.144 194.02 187.616 194.356 187.256L194.584 187.016C195.024 186.544 195.376 186.08 195.64 185.624C195.912 185.168 196.048 184.672 196.048 184.136C196.048 183.632 195.852 183.312 195.46 183.176C195.372 183.144 195.248 183.128 195.088 183.128C194.928 183.12 194.776 183.148 194.632 183.212C194.488 183.276 194.38 183.356 194.308 183.452C194.172 183.652 194.1 183.836 194.092 184.004C194.076 184.292 194.14 184.484 194.284 184.58L194.344 184.628C194.512 184.7 194.596 184.808 194.596 184.952V184.964C194.596 185.18 194.532 185.352 194.404 185.48C194.276 185.6 194.148 185.668 194.02 185.684L193.816 185.708C193.576 185.708 193.372 185.664 193.204 185.576C193.044 185.488 192.932 185.376 192.868 185.24C192.748 185 192.688 184.76 192.688 184.52C192.688 183.84 192.944 183.308 193.456 182.924C193.976 182.54 194.568 182.348 195.232 182.348C195.896 182.348 196.456 182.52 196.912 182.864C197.368 183.208 197.596 183.688 197.596 184.304C197.596 185.136 197.24 185.868 196.528 186.5L196.288 186.704C195.216 187.616 194.512 188.36 194.176 188.936C194.056 189.136 193.996 189.304 193.996 189.44C193.996 189.528 194.072 189.584 194.224 189.608C194.384 189.624 194.688 189.632 195.136 189.632C196.264 189.632 196.996 189.448 197.332 189.08C197.372 189.056 197.412 189.044 197.452 189.044C197.548 189.044 197.596 189.18 197.596 189.452C197.596 189.724 197.54 190.016 197.428 190.328C197.316 190.632 197.152 190.848 196.936 190.976C196.784 191.072 196.376 191.12 195.712 191.12ZM202.884 186.8C202.884 184.408 202.46 183.212 201.612 183.212C200.772 183.212 200.352 184.408 200.352 186.8C200.352 189.184 200.772 190.376 201.612 190.376C202.46 190.376 202.884 189.184 202.884 186.8ZM203.46 190.508C203.26 190.724 203.004 190.892 202.692 191.012C202.38 191.132 202 191.192 201.552 191.192C201.112 191.192 200.712 191.108 200.352 190.94C199.992 190.764 199.712 190.548 199.512 190.292C199.32 190.028 199.164 189.7 199.044 189.308C198.924 188.916 198.848 188.544 198.816 188.192C198.784 187.84 198.768 187.428 198.768 186.956C198.768 186.476 198.788 186.036 198.828 185.636C198.868 185.236 198.948 184.828 199.068 184.412C199.188 183.988 199.348 183.636 199.548 183.356C199.756 183.076 200.036 182.848 200.388 182.672C200.74 182.488 201.14 182.396 201.588 182.396C202.044 182.396 202.436 182.464 202.764 182.6C203.092 182.736 203.356 182.932 203.556 183.188C203.756 183.436 203.92 183.696 204.048 183.968C204.176 184.24 204.268 184.56 204.324 184.928C204.42 185.552 204.468 186.112 204.468 186.608C204.468 187.096 204.452 187.5 204.42 187.82C204.396 188.14 204.348 188.48 204.276 188.84C204.212 189.192 204.108 189.504 203.964 189.776C203.828 190.04 203.66 190.284 203.46 190.508ZM209.906 186.8C209.906 184.408 209.482 183.212 208.634 183.212C207.794 183.212 207.374 184.408 207.374 186.8C207.374 189.184 207.794 190.376 208.634 190.376C209.482 190.376 209.906 189.184 209.906 186.8ZM210.482 190.508C210.282 190.724 210.026 190.892 209.714 191.012C209.402 191.132 209.022 191.192 208.574 191.192C208.134 191.192 207.734 191.108 207.374 190.94C207.014 190.764 206.734 190.548 206.534 190.292C206.342 190.028 206.186 189.7 206.066 189.308C205.946 188.916 205.87 188.544 205.838 188.192C205.806 187.84 205.79 187.428 205.79 186.956C205.79 186.476 205.81 186.036 205.85 185.636C205.89 185.236 205.97 184.828 206.09 184.412C206.21 183.988 206.37 183.636 206.57 183.356C206.778 183.076 207.058 182.848 207.41 182.672C207.762 182.488 208.162 182.396 208.61 182.396C209.066 182.396 209.458 182.464 209.786 182.6C210.114 182.736 210.378 182.932 210.578 183.188C210.778 183.436 210.942 183.696 211.07 183.968C211.198 184.24 211.29 184.56 211.346 184.928C211.442 185.552 211.49 186.112 211.49 186.608C211.49 187.096 211.474 187.5 211.442 187.82C211.418 188.14 211.37 188.48 211.298 188.84C211.234 189.192 211.13 189.504 210.986 189.776C210.85 190.04 210.682 190.284 210.482 190.508Z" fill="black" fill-opacity="0.85"/>
<line x1="273.5" y1="30" x2="273.5" y2="174" stroke="black" stroke-opacity="0.15" stroke-dasharray="2 2"/>
<path d="M264.703 186.74C264.647 186.74 264.619 186.72 264.619 186.68V186.656C264.643 186.144 264.787 185.888 265.051 185.888H265.291C265.579 185.888 265.827 185.84 266.035 185.744C266.251 185.648 266.415 185.536 266.527 185.408C266.639 185.272 266.727 185.112 266.791 184.928C266.887 184.664 266.935 184.412 266.935 184.172C266.935 183.924 266.899 183.728 266.827 183.584C266.755 183.44 266.663 183.34 266.551 183.284C266.375 183.196 266.175 183.152 265.951 183.152C265.727 183.152 265.523 183.236 265.339 183.404C265.155 183.572 265.063 183.796 265.063 184.076C265.063 184.196 265.087 184.316 265.135 184.436C265.183 184.556 265.207 184.628 265.207 184.652C265.207 184.772 265.139 184.864 265.003 184.928C264.867 184.984 264.707 185.012 264.523 185.012C264.347 185.012 264.191 184.952 264.055 184.832C263.919 184.712 263.835 184.596 263.803 184.484C263.779 184.364 263.767 184.244 263.767 184.124C263.767 183.732 263.903 183.404 264.175 183.14C264.663 182.676 265.351 182.444 266.239 182.444C266.423 182.444 266.651 182.48 266.923 182.552C267.203 182.616 267.435 182.704 267.619 182.816C267.803 182.92 267.971 183.092 268.123 183.332C268.275 183.572 268.351 183.848 268.351 184.16C268.351 184.464 268.299 184.736 268.195 184.976C268.099 185.208 267.979 185.392 267.835 185.528C267.531 185.808 267.263 185.976 267.031 186.032L266.887 186.08C266.839 186.112 266.815 186.144 266.815 186.176C266.815 186.2 266.839 186.216 266.887 186.224C266.943 186.232 267.007 186.248 267.079 186.272C267.159 186.288 267.299 186.348 267.499 186.452C267.699 186.548 267.875 186.672 268.027 186.824C268.179 186.976 268.315 187.2 268.435 187.496C268.563 187.784 268.627 188.152 268.627 188.6C268.627 189.04 268.531 189.448 268.339 189.824C268.147 190.192 267.911 190.46 267.631 190.628C267.063 190.98 266.559 191.164 266.119 191.18L265.831 191.192C265.071 191.192 264.483 191.036 264.067 190.724C263.651 190.404 263.443 189.984 263.443 189.464C263.443 189.064 263.551 188.708 263.767 188.396C263.991 188.084 264.287 187.928 264.655 187.928C264.855 187.928 265.035 187.972 265.195 188.06C265.363 188.148 265.447 188.276 265.447 188.444C265.447 188.532 265.411 188.592 265.339 188.624C265.219 188.696 265.127 188.8 265.063 188.936C264.999 189.064 264.963 189.176 264.955 189.272L264.943 189.416C264.943 189.704 265.023 189.94 265.183 190.124C265.343 190.3 265.551 190.388 265.807 190.388C266.639 190.388 267.055 189.704 267.055 188.336C267.055 187.768 266.879 187.356 266.527 187.1C266.175 186.844 265.715 186.716 265.147 186.716C265.099 186.716 265.051 186.716 265.003 186.716L264.727 186.74H264.703ZM273.913 186.8C273.913 184.408 273.489 183.212 272.641 183.212C271.801 183.212 271.381 184.408 271.381 186.8C271.381 189.184 271.801 190.376 272.641 190.376C273.489 190.376 273.913 189.184 273.913 186.8ZM274.489 190.508C274.289 190.724 274.033 190.892 273.721 191.012C273.409 191.132 273.029 191.192 272.581 191.192C272.141 191.192 271.741 191.108 271.381 190.94C271.021 190.764 270.741 190.548 270.541 190.292C270.349 190.028 270.193 189.7 270.073 189.308C269.953 188.916 269.877 188.544 269.845 188.192C269.813 187.84 269.797 187.428 269.797 186.956C269.797 186.476 269.817 186.036 269.857 185.636C269.897 185.236 269.977 184.828 270.097 184.412C270.217 183.988 270.377 183.636 270.577 183.356C270.785 183.076 271.065 182.848 271.417 182.672C271.769 182.488 272.169 182.396 272.617 182.396C273.073 182.396 273.465 182.464 273.793 182.6C274.121 182.736 274.385 182.932 274.585 183.188C274.785 183.436 274.949 183.696 275.077 183.968C275.205 184.24 275.297 184.56 275.353 184.928C275.449 185.552 275.497 186.112 275.497 186.608C275.497 187.096 275.481 187.5 275.45 187.82C275.425 188.14 275.377 188.48 275.305 188.84C275.241 189.192 275.137 189.504 274.993 189.776C274.857 190.04 274.689 190.284 274.489 190.508ZM280.935 186.8C280.935 184.408 280.511 183.212 279.663 183.212C278.823 183.212 278.403 184.408 278.403 186.8C278.403 189.184 278.823 190.376 279.663 190.376C280.511 190.376 280.935 189.184 280.935 186.8ZM281.511 190.508C281.311 190.724 281.055 190.892 280.743 191.012C280.431 191.132 280.051 191.192 279.603 191.192C279.163 191.192 278.763 191.108 278.403 190.94C278.043 190.764 277.763 190.548 277.563 190.292C277.371 190.028 277.215 189.7 277.095 189.308C276.975 188.916 276.899 188.544 276.867 188.192C276.835 187.84 276.819 187.428 276.819 186.956C276.819 186.476 276.839 186.036 276.879 185.636C276.919 185.236 276.999 184.828 277.119 184.412C277.239 183.988 277.399 183.636 277.599 183.356C277.807 183.076 278.087 182.848 278.439 182.672C278.791 182.488 279.191 182.396 279.639 182.396C280.095 182.396 280.487 182.464 280.815 182.6C281.143 182.736 281.407 182.932 281.607 183.188C281.807 183.436 281.971 183.696 282.099 183.968C282.227 184.24 282.319 184.56 282.375 184.928C282.471 185.552 282.519 186.112 282.519 186.608C282.519 187.096 282.503 187.5 282.471 187.82C282.447 188.14 282.399 188.48 282.327 188.84C282.263 189.192 282.159 189.504 282.015 189.776C281.879 190.04 281.711 190.284 281.511 190.508Z" fill="black" fill-opacity="0.85"/>
<line x1="344.5" y1="30" x2="344.5" y2="174" stroke="black" stroke-opacity="0.15" stroke-dasharray="2 2"/>
<path d="M335.77 187.556L336.766 187.58C337.118 187.58 337.394 187.576 337.594 187.568C337.618 186.912 337.63 186.336 337.63 185.84L337.618 184.664C337.618 184.56 337.59 184.508 337.534 184.508L337.39 184.58C337.142 184.852 336.878 185.208 336.598 185.648C336.326 186.088 336.114 186.464 335.962 186.776L335.734 187.232C335.702 187.304 335.686 187.376 335.686 187.448C335.686 187.52 335.714 187.556 335.77 187.556ZM337.534 188.804L336.502 188.792L334.342 188.816C334.166 188.816 334.078 188.736 334.078 188.576L334.102 188.444C334.614 187.18 335.474 185.744 336.682 184.136C337.066 183.616 337.422 183.176 337.75 182.816L337.906 182.66C338.114 182.444 338.422 182.336 338.83 182.336C339.046 182.336 339.154 182.4 339.154 182.528C339.026 183.656 338.962 184.804 338.962 185.972V187.496C339.066 187.488 339.178 187.48 339.298 187.472L339.574 187.448C339.63 187.448 339.666 187.448 339.682 187.448C339.746 187.448 339.778 187.468 339.778 187.508C339.778 187.644 339.71 187.864 339.574 188.168C339.438 188.472 339.298 188.656 339.154 188.72L338.986 188.756C339.002 189.66 339.042 190.268 339.106 190.58C339.106 190.788 338.946 190.94 338.626 191.036C338.314 191.132 338.014 191.18 337.726 191.18C337.446 191.18 337.306 191.116 337.306 190.988C337.306 190.972 337.33 190.812 337.378 190.508C337.426 190.204 337.478 189.636 337.534 188.804ZM344.955 186.8C344.955 184.408 344.531 183.212 343.683 183.212C342.843 183.212 342.423 184.408 342.423 186.8C342.423 189.184 342.843 190.376 343.683 190.376C344.531 190.376 344.955 189.184 344.955 186.8ZM345.531 190.508C345.331 190.724 345.075 190.892 344.763 191.012C344.451 191.132 344.071 191.192 343.623 191.192C343.183 191.192 342.783 191.108 342.423 190.94C342.063 190.764 341.783 190.548 341.583 190.292C341.391 190.028 341.235 189.7 341.115 189.308C340.995 188.916 340.919 188.544 340.887 188.192C340.855 187.84 340.839 187.428 340.839 186.956C340.839 186.476 340.859 186.036 340.899 185.636C340.939 185.236 341.019 184.828 341.139 184.412C341.259 183.988 341.419 183.636 341.619 183.356C341.827 183.076 342.107 182.848 342.459 182.672C342.811 182.488 343.211 182.396 343.659 182.396C344.115 182.396 344.507 182.464 344.835 182.6C345.163 182.736 345.427 182.932 345.627 183.188C345.827 183.436 345.991 183.696 346.119 183.968C346.247 184.24 346.339 184.56 346.395 184.928C346.491 185.552 346.539 186.112 346.539 186.608C346.539 187.096 346.523 187.5 346.491 187.82C346.467 188.14 346.419 188.48 346.347 188.84C346.283 189.192 346.179 189.504 346.035 189.776C345.899 190.04 345.731 190.284 345.531 190.508ZM351.976 186.8C351.976 184.408 351.552 183.212 350.704 183.212C349.864 183.212 349.444 184.408 349.444 186.8C349.444 189.184 349.864 190.376 350.704 190.376C351.552 190.376 351.976 189.184 351.976 186.8ZM352.552 190.508C352.352 190.724 352.096 190.892 351.784 191.012C351.472 191.132 351.092 191.192 350.644 191.192C350.204 191.192 349.804 191.108 349.444 190.94C349.084 190.764 348.804 190.548 348.604 190.292C348.412 190.028 348.256 189.7 348.136 189.308C348.016 188.916 347.94 188.544 347.908 188.192C347.876 187.84 347.86 187.428 347.86 186.956C347.86 186.476 347.88 186.036 347.92 185.636C347.96 185.236 348.04 184.828 348.16 184.412C348.28 183.988 348.44 183.636 348.64 183.356C348.848 183.076 349.128 182.848 349.48 182.672C349.832 182.488 350.232 182.396 350.68 182.396C351.136 182.396 351.528 182.464 351.856 182.6C352.184 182.736 352.448 182.932 352.648 183.188C352.848 183.436 353.012 183.696 353.14 183.968C353.268 184.24 353.36 184.56 353.416 184.928C353.512 185.552 353.56 186.112 353.56 186.608C353.56 187.096 353.544 187.5 353.512 187.82C353.488 188.14 353.44 188.48 353.368 188.84C353.304 189.192 353.2 189.504 353.056 189.776C352.92 190.04 352.752 190.284 352.552 190.508Z" fill="black" fill-opacity="0.85"/>
<line x1="60" y1="174" x2="345" y2="174" stroke="black" stroke-opacity="0.85" stroke-width="2"/>
<circle cx="99" cy="125" r="3.5" fill="#3673E8" fill-opacity="0.2" stroke="#3673E8"/>
<circle cx="111" cy="112" r="3.5" fill="#3673E8" fill-opacity="0.2" stroke="#3673E8"/>
<circle cx="131" cy="139" r="7.5" fill="#3673E8" fill-opacity="0.2" stroke="#3673E8"/>
<circle cx="146" cy="103" r="3.5" fill="#3673E8" fill-opacity="0.2" stroke="#3673E8"/>
<circle cx="242" cy="76" r="7.5" fill="#3673E8" fill-opacity="0.2" stroke="#3673E8"/>
<circle cx="299" cy="117" r="7.5" fill="#3673E8" fill-opacity="0.2" stroke="#3673E8"/>
<circle cx="216" cy="100" r="5.5" fill="#3673E8" fill-opacity="0.2" stroke="#3673E8"/>
<circle cx="177" cy="79" r="3.5" fill="#3673E8" fill-opacity="0.2" stroke="#3673E8"/>
<circle cx="88" cy="141" r="5.5" fill="#3673E8" fill-opacity="0.2" stroke="#3673E8"/>
<circle cx="131" cy="102" r="3.5" fill="#3673E8" fill-opacity="0.2" stroke="#3673E8"/>
<circle cx="152" cy="72" r="5.5" fill="#3673E8" fill-opacity="0.2" stroke="#3673E8"/>
<circle cx="119" cy="112" r="7.5" fill="#3673E8" fill-opacity="0.2" stroke="#3673E8"/>
<circle cx="165" cy="88" r="3.5" fill="#3673E8" fill-opacity="0.2" stroke="#3673E8"/>
<circle cx="187" cy="103" r="3.5" fill="#3673E8" fill-opacity="0.2" stroke="#3673E8"/>
<circle cx="243" cy="56" r="7.5" fill="#3673E8" fill-opacity="0.2" stroke="#3673E8"/>
<circle cx="263" cy="106" r="7.5" fill="#3673E8" fill-opacity="0.2" stroke="#3673E8"/>
<circle cx="310" cy="133" r="3.5" fill="#3673E8" fill-opacity="0.2" stroke="#3673E8"/>
<circle cx="299" cy="125" r="3.5" fill="#3673E8" fill-opacity="0.2" stroke="#3673E8"/>
<circle cx="216" cy="74" r="3.5" fill="#3673E8" fill-opacity="0.2" stroke="#3673E8"/>
<circle cx="206" cy="82" r="3.5" fill="#3673E8" fill-opacity="0.2" stroke="#3673E8"/>
<circle cx="309" cy="42" r="5.5" fill="#3673E8" fill-opacity="0.2" stroke="#3673E8"/>
<circle cx="206" cy="70" r="7.5" fill="#3673E8" fill-opacity="0.2" stroke="#3673E8"/>
<circle cx="119" cy="147" r="3.5" fill="#3673E8" fill-opacity="0.2" stroke="#3673E8"/>
<circle cx="138" cy="115" r="3.5" fill="#3673E8" fill-opacity="0.2" stroke="#3673E8"/>
<circle cx="232" cy="86" r="5.5" fill="#3673E8" fill-opacity="0.2" stroke="#3673E8"/>
<circle cx="287" cy="125" r="3.5" fill="#3673E8" fill-opacity="0.2" stroke="#3673E8"/>
<circle cx="208" cy="112" r="5.5" fill="#3673E8" fill-opacity="0.2" stroke="#3673E8"/>
<circle cx="173" cy="95" r="7.5" fill="#3673E8" fill-opacity="0.2" stroke="#3673E8"/>
</svg>
