<svg width="63" height="24" viewBox="0 0 63 24" fill="none" xmlns="http://www.w3.org/2000/svg">
<path d="M20.953 8.78357C20.9382 8.89444 20.8943 8.9841 20.8213 9.05254C20.7483 9.12097 20.6651 9.15887 20.5717 9.16623C20.4315 9.17726 20.3152 9.14331 20.2227 9.06438C20.1297 8.97766 20.0786 8.87589 20.0694 8.75906C20.0602 8.64224 20.063 8.52839 20.0778 8.41751C20.092 8.29884 20.0948 8.18499 20.0862 8.07596C20.0414 7.5074 19.826 7.01105 19.44 6.58691C19.054 6.16276 18.5258 5.82425 17.8555 5.57138C17.1923 5.31011 16.3948 5.13386 15.4628 5.04263C14.5309 4.9514 13.5003 4.95023 12.371 5.03911C11.5065 5.10715 10.6388 5.23421 9.76789 5.4203C8.90417 5.59799 8.07589 5.82775 7.28306 6.10957C6.4974 6.38299 5.76697 6.71085 5.09175 7.09313C4.41593 7.46762 3.83396 7.88958 3.34585 8.35901C2.86491 8.82004 2.497 9.32311 2.24211 9.86823C1.9866 10.4056 1.88306 10.9819 1.93149 11.5971C1.96888 12.0722 2.10323 12.4848 2.33454 12.835C2.57302 13.1767 2.88212 13.4697 3.26184 13.7141C3.64095 13.9508 4.07961 14.1474 4.57781 14.3041C5.08319 14.4524 5.62537 14.5704 6.20435 14.6581C6.78271 14.7379 7.3829 14.7965 8.00493 14.8337C8.62635 14.8632 9.25074 14.8807 9.8781 14.8861L11.6892 14.8964C12.591 14.9038 13.3996 14.9225 14.1151 14.9524C14.8306 14.9823 15.4622 15.0423 16.0101 15.1324C16.9235 15.2877 17.611 15.5589 18.0724 15.9457C18.5339 16.3326 18.7922 16.8765 18.8474 17.5774C18.9007 18.255 18.7607 18.8656 18.4273 19.409C18.0939 19.9525 17.6178 20.4249 16.9989 20.8262C16.3801 21.2276 15.6454 21.5519 14.795 21.799C13.9446 22.0462 13.0248 22.2087 12.0357 22.2866C10.9609 22.3711 10.0088 22.3716 9.17934 22.288C8.35832 22.2116 7.66457 22.1094 7.09811 21.9816C6.53882 21.8454 6.10927 21.7146 5.80945 21.5893C5.50963 21.464 5.34743 21.3945 5.32284 21.3808C5.17652 21.3139 5.09661 21.1948 5.08313 21.0235C5.07271 20.8911 5.11116 20.7822 5.19849 20.697C5.28521 20.604 5.38309 20.5532 5.49213 20.5446C5.5778 20.5378 5.65752 20.5551 5.7313 20.5963C5.73909 20.5957 5.87701 20.6554 6.14506 20.7753C6.42028 20.8869 6.82135 21.0042 7.34826 21.1273C7.88295 21.2498 8.53714 21.3472 9.31083 21.4195C10.0845 21.4919 10.9776 21.4882 11.9901 21.4085C12.9948 21.3294 13.8762 21.1778 14.6344 20.9535C15.3926 20.7293 16.0213 20.4526 16.5204 20.1233C17.0267 19.7857 17.397 19.4117 17.6311 19.0015C17.8725 18.5828 17.9751 18.1437 17.9389 17.6842C17.9174 17.4116 17.8484 17.1819 17.7318 16.9952C17.6224 16.8001 17.4766 16.6391 17.2942 16.5124C17.1112 16.3779 16.895 16.2696 16.6456 16.1873C16.404 16.1045 16.1402 16.039 15.8543 15.991C15.5522 15.9364 15.2277 15.8953 14.8807 15.8678C14.5415 15.8396 14.1912 15.8202 13.8299 15.8094C13.4686 15.7987 13.1037 15.7921 12.7351 15.7898C12.3744 15.7868 12.0176 15.7836 11.6647 15.78L9.8536 15.7697C8.42691 15.7644 7.17445 15.6828 6.09623 15.5247C5.02518 15.3582 4.12415 15.1117 3.39316 14.7853C2.66156 14.451 2.09937 14.029 1.70659 13.5192C1.31382 13.0093 1.08924 12.3962 1.03285 11.6796C0.975227 10.9475 1.08607 10.2648 1.36537 9.6316C1.65185 8.98996 2.06006 8.40143 2.58999 7.86601C3.12772 7.32998 3.76412 6.8528 4.49919 6.43446C5.24143 6.00772 6.0392 5.63931 6.8925 5.32921C7.74581 5.01912 8.63516 4.76889 9.56058 4.5785C10.4854 4.38033 11.3995 4.2457 12.303 4.17459C13.4323 4.08571 14.4191 4.07858 15.2635 4.15318C16.1151 4.21938 16.8454 4.33823 17.4545 4.50972C18.0708 4.67281 18.5804 4.87563 18.9835 5.11819C19.3866 5.36075 19.7154 5.60524 19.9699 5.85166C20.5738 6.45458 20.9082 7.16882 20.9731 7.9944C20.9946 8.26699 20.9879 8.53005 20.953 8.78357ZM29.5944 17.1666C29.5681 17.2313 29.5123 17.3689 29.427 17.5794C29.3489 17.7815 29.242 18.0171 29.1065 18.2864C28.9787 18.5551 28.8247 18.8376 28.6442 19.1339C28.4638 19.4302 28.2582 19.705 28.0273 19.9583C27.7965 20.2115 27.5431 20.4274 27.2672 20.6059C26.9907 20.7765 26.6927 20.8744 26.3734 20.8995C25.9217 20.9351 25.5287 20.821 25.1945 20.5574C24.8681 20.2931 24.6176 19.9484 24.4431 19.5233C24.2132 19.9881 23.9257 20.3673 23.5805 20.6609C23.2346 20.9467 22.8787 21.1041 22.5126 21.1329C22.2245 21.1555 21.9596 21.1254 21.7179 21.0426C21.4757 20.9519 21.2655 20.8196 21.0872 20.6455C20.9083 20.4637 20.762 20.248 20.6483 19.9983C20.5424 19.748 20.4775 19.471 20.4536 19.1673C20.4058 18.5598 20.4651 18.0183 20.6314 17.5428C20.8049 17.059 21.0391 16.6487 21.3339 16.312C21.6287 15.9754 21.9608 15.7141 22.3302 15.5283C22.7073 15.3419 23.075 15.2346 23.4333 15.2064C23.6747 15.1874 23.8995 15.205 24.1075 15.2592C24.3149 15.3055 24.4917 15.3621 24.6381 15.429C24.7922 15.4952 24.9109 15.5603 24.9943 15.6243C25.0771 15.6805 25.1227 15.7121 25.1311 15.7193C25.2248 15.8138 25.2759 15.9156 25.2844 16.0246C25.2936 16.1415 25.2591 16.25 25.1808 16.3502C25.1018 16.4426 25.004 16.4934 24.8871 16.5026C24.7625 16.5124 24.654 16.4778 24.5616 16.3989C24.5448 16.3846 24.5076 16.3601 24.45 16.3254C24.3918 16.283 24.3141 16.2421 24.217 16.2027C24.1199 16.1633 24.0039 16.1333 23.869 16.1125C23.7413 16.0834 23.5957 16.0753 23.4322 16.0881C23.1907 16.1071 22.938 16.1819 22.674 16.3124C22.41 16.4429 22.1742 16.6338 21.9667 16.8853C21.7587 17.1289 21.5905 17.4321 21.4623 17.7948C21.3413 18.1492 21.2995 18.5639 21.3369 19.039C21.3486 19.1869 21.3761 19.3376 21.4195 19.4909C21.4623 19.6364 21.5275 19.7684 21.6152 19.8869C21.7029 20.0054 21.816 20.0984 21.9546 20.1659C22.0931 20.2333 22.2597 20.2594 22.4544 20.2441C22.5946 20.233 22.7506 20.1737 22.9224 20.0662C23.102 19.958 23.2659 19.8001 23.4141 19.5925C23.5701 19.3843 23.7027 19.1271 23.8118 18.8207C23.9287 18.5137 23.9985 18.1555 24.0211 17.7463C24.0281 17.636 24.0717 17.5424 24.1518 17.4656C24.2314 17.381 24.3296 17.3341 24.4464 17.3249C24.5554 17.3163 24.6523 17.3518 24.7369 17.4313C24.8293 17.5102 24.8837 17.6039 24.9001 17.7123C24.9195 17.8597 24.9516 18.0688 24.9964 18.3395C25.0406 18.6025 25.1121 18.8633 25.2108 19.122C25.3173 19.3801 25.46 19.6 25.6389 19.7818C25.8178 19.9637 26.0513 20.0433 26.3395 20.0206C26.5264 20.0059 26.7055 19.9408 26.8766 19.8255C27.0556 19.7095 27.2243 19.563 27.3828 19.386C27.5484 19.2006 27.7009 18.9966 27.8401 18.774C27.9865 18.5431 28.1173 18.3133 28.2325 18.0848C28.3478 17.8563 28.448 17.6369 28.5334 17.4264C28.6187 17.2159 28.6905 17.0339 28.749 16.8805C28.7812 16.7917 28.8305 16.7212 28.8969 16.669C28.9711 16.6161 29.0511 16.5863 29.1367 16.5796C29.2691 16.5692 29.3783 16.6115 29.4641 16.7066C29.5572 16.7933 29.608 16.8912 29.6165 17.0003C29.6208 17.0548 29.6134 17.1102 29.5944 17.1666ZM30.3456 19.094C30.5269 19.307 30.7516 19.4735 31.0196 19.5935C31.2871 19.7057 31.6077 19.747 31.9816 19.7176C32.3632 19.6876 32.7027 19.5707 33.0002 19.3671C33.297 19.1556 33.5623 18.8918 33.796 18.5756C34.0297 18.2594 34.2334 17.9104 34.4071 17.5284C34.5808 17.1464 34.735 16.7659 34.8698 16.387C34.902 16.2982 34.9516 16.2316 35.0186 16.1872C35.085 16.1349 35.1611 16.1054 35.2468 16.0987C35.3792 16.0883 35.488 16.1267 35.5732 16.2141C35.6662 16.3008 35.717 16.3987 35.7256 16.5077C35.7287 16.5466 35.7276 16.582 35.7222 16.6138C35.7163 16.6377 35.7067 16.6659 35.6936 16.6983C35.2494 17.9244 34.7315 18.8625 34.1401 19.5125C33.5564 20.1618 32.8641 20.5259 32.0631 20.6046C31.5491 20.645 31.0972 20.5787 30.7074 20.4056C30.3182 20.2403 29.9907 20.0114 29.7247 19.7189C29.4581 19.4186 29.2508 19.0744 29.1027 18.6864C28.9546 18.2984 28.865 17.9058 28.8337 17.5086C28.8024 17.1113 28.8204 16.7416 28.8875 16.3994C28.9623 16.0565 29.0796 15.7534 29.2391 15.4901C29.4064 15.2261 29.6091 15.0142 29.8473 14.8544C30.0933 14.694 30.3682 14.6019 30.6719 14.578C30.8511 14.5639 31.0294 14.589 31.2068 14.6534C31.3915 14.7094 31.5594 14.802 31.7107 14.9311C31.8613 15.0525 31.9871 15.2072 32.0881 15.3951C32.1891 15.5831 32.2494 15.8017 32.269 16.0509C32.2941 16.3703 32.2632 16.6744 32.1762 16.9634C32.0892 17.2523 31.9579 17.5252 31.7822 17.782C31.6143 18.0381 31.4059 18.2779 31.157 18.5012C30.9081 18.7245 30.6377 18.9222 30.3456 19.094ZM29.9353 18.3623C30.1688 18.242 30.3768 18.0963 30.5592 17.9252C30.7494 17.7535 30.9073 17.5687 31.0328 17.3707C31.1583 17.1728 31.252 16.9695 31.3139 16.7609C31.3753 16.5445 31.3977 16.3311 31.3811 16.1208C31.3627 15.8872 31.2905 15.7165 31.1645 15.6089C31.0379 15.4935 30.8967 15.4419 30.7409 15.4541C30.5306 15.4707 30.3561 15.5432 30.2173 15.6717C30.0785 15.8002 29.9697 15.9615 29.891 16.1558C29.8122 16.3501 29.7587 16.5659 29.7303 16.8032C29.7092 17.0321 29.7075 17.2595 29.7252 17.4854C29.7363 17.6256 29.7596 17.7727 29.7952 17.9266C29.8386 18.0799 29.8853 18.2251 29.9353 18.3623ZM36.4673 18.6123C36.6486 18.8252 36.8733 18.9917 37.1413 19.1117C37.4088 19.2239 37.7294 19.2652 38.1033 19.2358C38.4849 19.2058 38.8244 19.0889 39.1219 18.8853C39.4187 18.6738 39.684 18.41 39.9177 18.0938C40.1514 17.7777 40.3551 17.4286 40.5288 17.0466C40.7025 16.6646 40.8567 16.2841 40.9915 15.9052C41.0237 15.8165 41.0733 15.7499 41.1403 15.7054C41.2067 15.6532 41.2828 15.6237 41.3684 15.6169C41.5009 15.6065 41.6097 15.645 41.6949 15.7323C41.7879 15.819 41.8387 15.9169 41.8473 16.0259C41.8504 16.0649 41.8493 16.1002 41.8439 16.132C41.838 16.156 41.8284 16.1841 41.8153 16.2165C41.3711 17.4426 40.8532 18.3807 40.2618 19.0307C39.6781 19.68 38.9858 20.0441 38.1848 20.1228C37.6708 20.1632 37.2189 20.0969 36.8291 19.9238C36.4399 19.7586 36.1124 19.5296 35.8464 19.2371C35.5798 18.9368 35.3725 18.5926 35.2244 18.2046C35.0763 17.8166 34.9866 17.424 34.9554 17.0268C34.9241 16.6296 34.942 16.2598 35.0092 15.9176C35.084 15.5747 35.2012 15.2716 35.3608 15.0083C35.5281 14.7443 35.7308 14.5325 35.969 14.3727C36.215 14.2122 36.4899 14.1201 36.7936 14.0962C36.9728 14.0821 37.1511 14.1072 37.3285 14.1716C37.5132 14.2276 37.6811 14.3202 37.8323 14.4493C37.983 14.5707 38.1088 14.7254 38.2098 14.9134C38.3108 15.1013 38.3711 15.3199 38.3907 15.5692C38.4158 15.8885 38.3849 16.1926 38.2979 16.4816C38.2109 16.7705 38.0796 17.0434 37.9039 17.3002C37.736 17.5563 37.5276 17.7961 37.2787 18.0194C37.0298 18.2428 36.7594 18.4404 36.4673 18.6123ZM36.057 17.8805C36.2905 17.7602 36.4984 17.6145 36.6809 17.4435C36.8711 17.2717 37.029 17.0869 37.1545 16.889C37.28 16.691 37.3737 16.4877 37.4356 16.2791C37.497 16.0627 37.5193 15.8493 37.5028 15.639C37.4844 15.4054 37.4122 15.2347 37.2862 15.1271C37.1595 15.0117 37.0183 14.9601 36.8626 14.9724C36.6523 14.9889 36.4778 15.0614 36.339 15.1899C36.2002 15.3184 36.0914 15.4797 36.0127 15.674C35.9339 15.8683 35.8804 16.0841 35.852 16.3214C35.8309 16.5504 35.8292 16.7778 35.8469 17.0036C35.858 17.1438 35.8813 17.2909 35.9169 17.4448C35.9603 17.5981 36.007 17.7433 36.057 17.8805ZM42.2448 15.1013C42.2078 15.2296 42.1605 15.3743 42.1026 15.5356C42.0526 15.6963 41.9914 15.8657 41.9193 16.0438C41.8596 16.1817 41.7939 16.2927 41.7221 16.3767C41.6575 16.4523 41.5668 16.4947 41.45 16.5039C41.3176 16.5143 41.2094 16.4836 41.1254 16.4119C41.0408 16.3323 40.9942 16.238 40.9856 16.129C40.9825 16.0901 40.9839 16.0586 40.9899 16.0346C40.9952 16.0029 41.011 15.9546 41.0373 15.8898C41.2091 15.4845 41.3304 15.134 41.4012 14.8385C41.4792 14.5346 41.5367 14.2205 41.5739 13.8963C41.5053 13.7214 41.4544 13.5726 41.4212 13.4498C41.3881 13.3271 41.3663 13.1995 41.3559 13.0671C41.3356 12.8101 41.3739 12.5994 41.4707 12.435C41.5668 12.2629 41.7123 12.1692 41.907 12.1538C42.0861 12.1397 42.2324 12.2066 42.346 12.3544C42.4673 12.5016 42.5368 12.6881 42.5546 12.914C42.5644 13.0386 42.5625 13.1641 42.5489 13.2906C42.5354 13.417 42.5165 13.5752 42.4923 13.7652C42.7063 14.1951 42.9164 14.5743 43.1225 14.9029C43.3286 15.2315 43.5131 15.5343 43.676 15.8115C43.8382 16.0808 43.972 16.3367 44.0773 16.5792C44.1904 16.8211 44.2567 17.0666 44.2763 17.3159C44.3021 17.643 44.2604 17.9597 44.1513 18.2661C44.0422 18.5725 43.8437 18.8389 43.5559 19.0653C43.5955 19.07 43.6347 19.0708 43.6736 19.0678C43.7126 19.0647 43.7515 19.0617 43.7905 19.0586C44.2344 19.0236 44.6353 18.8902 44.9932 18.6583C45.3512 18.4264 45.6655 18.1391 45.9363 17.7965C46.2144 17.4455 46.4549 17.0661 46.6579 16.6582C46.8603 16.2426 47.0318 15.8334 47.1725 15.4305C47.2363 15.2452 47.3383 15.1471 47.4785 15.136C47.6109 15.1256 47.7158 15.1644 47.7932 15.2523C47.8785 15.3397 47.9254 15.4378 47.934 15.5469C47.9389 15.6092 47.9318 15.6685 47.9127 15.7249C47.8436 15.9419 47.7497 16.1922 47.6309 16.4759C47.5194 16.7511 47.3776 17.0405 47.2055 17.344C47.0407 17.639 46.8444 17.9327 46.6166 18.2249C46.3888 18.5171 46.1277 18.7845 45.8334 19.0271C45.5462 19.2613 45.2244 19.4551 44.8682 19.6085C44.5126 19.7698 44.1167 19.8675 43.6805 19.9018C43.1587 19.9429 42.6646 19.8878 42.1981 19.7364C41.7401 19.5922 41.3543 19.3208 41.0408 18.9223C40.9886 18.8559 40.9594 18.7838 40.9533 18.7059C40.9441 18.5891 40.9789 18.4844 41.0579 18.392C41.144 18.2912 41.2454 18.2362 41.3623 18.227C41.4869 18.2172 41.5954 18.2518 41.6878 18.3307C41.6968 18.3457 41.7262 18.3708 41.776 18.406C41.8252 18.4335 41.8828 18.4682 41.9488 18.51C42.0219 18.5434 42.1026 18.5723 42.1907 18.5967C42.2866 18.6205 42.3813 18.6288 42.4748 18.6214C42.6617 18.6067 42.8144 18.5555 42.9329 18.4678C43.0592 18.3795 43.1569 18.2778 43.2262 18.1626C43.2949 18.0396 43.34 17.9146 43.3613 17.7876C43.3898 17.6521 43.4004 17.5376 43.3931 17.4442C43.3777 17.2495 43.3313 17.0572 43.2536 16.8674C43.176 16.6776 43.0789 16.4893 42.9623 16.3026C42.8535 16.1152 42.7328 15.9249 42.6 15.7316C42.4744 15.5299 42.356 15.3198 42.2448 15.1013ZM48.2079 17.9821C48.3117 17.7075 48.4334 17.4119 48.5731 17.0953C48.7121 16.7709 48.8625 16.4416 49.0243 16.1076C49.1855 15.7658 49.3586 15.4269 49.5438 15.0911C49.729 14.7552 49.9234 14.4382 50.1272 14.14C50.3316 13.8496 50.5422 13.6371 50.7588 13.5025C50.9827 13.3595 51.1959 13.2801 51.3984 13.2641C51.6009 13.2482 51.7795 13.2772 51.9342 13.3513C52.0961 13.4169 52.2293 13.5161 52.3338 13.649C52.4461 13.7812 52.5329 13.9389 52.5944 14.1222C52.6636 14.3048 52.7068 14.5051 52.724 14.7232C52.7381 14.9024 52.7376 15.1453 52.7226 15.4521C52.7147 15.7505 52.7236 16.0633 52.7494 16.3904C52.7641 16.5773 52.7866 16.7637 52.8169 16.9494C52.8543 17.1266 52.9023 17.2874 52.9606 17.4317C53.0262 17.5676 53.1133 17.6783 53.2219 17.7638C53.3299 17.8415 53.4656 17.874 53.6292 17.8611C53.8161 17.8464 53.9991 17.781 54.178 17.6651C54.3563 17.5413 54.5283 17.3867 54.694 17.2013C54.859 17.0081 55.015 16.7999 55.1621 16.5767C55.3084 16.3458 55.4396 16.1199 55.5554 15.8992C55.6707 15.6707 55.7712 15.4551 55.8572 15.2525C55.9425 15.042 56.0111 14.8681 56.063 14.7308C56.1268 14.5455 56.256 14.4452 56.4507 14.4299C56.5831 14.4195 56.6919 14.4579 56.7772 14.5453C56.8624 14.6326 56.9093 14.7308 56.9179 14.8398C56.9228 14.9021 56.9157 14.9615 56.8967 15.0178C56.8704 15.0826 56.8182 15.216 56.7401 15.4181C56.6697 15.6195 56.5668 15.8549 56.4312 16.1242C56.3035 16.3928 56.1494 16.6753 55.969 16.9716C55.7885 17.268 55.5832 17.5466 55.353 17.8077C55.1299 18.0604 54.8804 18.2759 54.6045 18.4544C54.3358 18.6244 54.0457 18.7217 53.7341 18.7462C53.3759 18.7744 53.0819 18.7231 52.8521 18.5923C52.6218 18.4537 52.4351 18.2724 52.2921 18.0486C52.1569 17.8241 52.0546 17.5697 51.9852 17.2852C51.9236 17.0001 51.882 16.7212 51.8606 16.4486C51.8495 16.3084 51.8418 16.1601 51.8373 16.0038C51.84 15.839 51.843 15.6781 51.8464 15.5211C51.8497 15.3641 51.85 15.2191 51.8474 15.0861C51.8519 14.9447 51.8505 14.8272 51.8432 14.7338C51.8242 14.4923 51.7762 14.3315 51.6994 14.2514C51.6304 14.1706 51.553 14.1336 51.4673 14.1403C51.3427 14.1501 51.2044 14.2355 51.0525 14.3963C50.9078 14.5488 50.7551 14.7489 50.5943 14.9966C50.4414 15.2438 50.287 15.5224 50.1311 15.8324C49.9825 16.1341 49.8377 16.4354 49.6968 16.7365C49.5559 17.0375 49.4297 17.3256 49.3181 17.6009C49.206 17.8683 49.1138 18.0911 49.0416 18.2692C48.9038 18.6091 48.7535 18.8404 48.5907 18.9629C48.4364 19.0926 48.293 19.1627 48.1606 19.1731C47.9191 19.1921 47.7249 19.1133 47.5778 18.9368C47.4378 18.7519 47.3571 18.5232 47.3357 18.2506L47.2777 17.5146C47.1619 16.0426 47.0516 14.6407 46.9467 13.3089C46.8491 11.9686 46.7708 10.7248 46.7119 9.5775C46.6601 8.42175 46.6367 7.37739 46.6416 6.44444C46.6537 5.50309 46.7158 4.69886 46.8279 4.03177C46.9393 3.35688 47.1056 2.83049 47.3266 2.45261C47.5554 2.07412 47.8607 1.86985 48.2423 1.83982C48.5694 1.81407 48.8529 1.88188 49.0929 2.04324C49.3329 2.20459 49.5352 2.43552 49.6999 2.73603C49.864 3.02874 49.9935 3.37904 50.0883 3.78692C50.1824 4.18702 50.2473 4.61293 50.2829 5.06466C50.3552 5.98369 50.3406 6.89389 50.2391 7.79525C50.1449 8.68822 49.9906 9.56631 49.7764 10.4295C49.5622 11.2927 49.2998 12.1402 48.9891 12.9718C48.6778 13.7956 48.3454 14.6015 47.9921 15.3895C48.0031 15.5297 48.0163 15.6971 48.0317 15.8918C48.047 16.0866 48.0623 16.2813 48.0776 16.476C48.0929 16.6707 48.1074 16.8537 48.1208 17.0251C48.1343 17.1964 48.1451 17.3327 48.153 17.434L48.2079 17.9821ZM47.8686 13.6712C48.1394 12.929 48.3805 12.2086 48.5919 11.5102C48.8106 10.8033 48.9867 10.1038 49.1203 9.41146C49.2617 8.71854 49.3596 8.02121 49.4141 7.31946C49.468 6.60992 49.4652 5.87741 49.4057 5.12193C49.3959 4.99732 49.3725 4.79933 49.3355 4.52796C49.3062 4.25598 49.2494 3.98225 49.1651 3.70677C49.0885 3.43067 48.9796 3.19239 48.8384 2.99191C48.7051 2.79082 48.5293 2.69885 48.3113 2.71601C48.1399 2.7295 48.0011 2.85797 47.8949 3.10143C47.7881 3.3371 47.7035 3.65722 47.6413 4.06179C47.5785 4.45856 47.5365 4.92031 47.5153 5.44704C47.494 5.97377 47.4869 6.53073 47.4939 7.11793C47.501 7.70512 47.517 8.30728 47.5421 8.92441C47.5749 9.54092 47.6104 10.1415 47.6486 10.7263C47.6862 11.3032 47.7249 11.8448 47.7647 12.3511C47.8046 12.8573 47.8392 13.2974 47.8686 13.6712ZM57.5413 9.01908C57.5646 9.31504 57.4793 9.57644 57.2856 9.80327C57.099 10.0217 56.8578 10.1426 56.5618 10.1659C56.2659 10.1892 56.0048 10.1078 55.7785 9.92188C55.5595 9.72753 55.4383 9.48238 55.415 9.18642C55.4034 9.03844 55.4199 8.89999 55.4646 8.77109C55.5087 8.63439 55.5738 8.51564 55.6599 8.41482C55.7532 8.3056 55.86 8.21883 55.9803 8.15451C56.1085 8.08957 56.2465 8.05127 56.3945 8.03963C56.5425 8.02798 56.6809 8.04451 56.8098 8.08923C56.9465 8.13332 57.0656 8.20232 57.167 8.29621C57.2756 8.38171 57.3624 8.48851 57.4273 8.61662C57.4916 8.73695 57.5296 8.8711 57.5413 9.01908ZM56.1875 16.014C56.0992 14.8925 56.0813 13.7694 56.1339 12.6446C56.1409 12.5343 56.1803 12.4372 56.252 12.3532C56.3309 12.2608 56.4366 12.2093 56.569 12.1989C56.6858 12.1897 56.7869 12.2288 56.8721 12.3161C56.9567 12.3957 57.0036 12.4938 57.0128 12.6107C57.0165 12.6574 57.0159 12.7985 57.0109 13.034C57.0137 13.2689 57.0124 13.5511 57.007 13.8807C57.0088 14.2018 57.0124 14.5464 57.0178 14.9143C57.0304 15.2738 57.0487 15.6054 57.0726 15.9091C57.1051 16.3219 57.1704 16.6537 57.2685 16.9046C57.3738 17.1471 57.4943 17.3336 57.6299 17.4639C57.7733 17.5937 57.917 17.6764 58.0609 17.7121C58.2125 17.7472 58.3545 17.7596 58.4869 17.7491C58.705 17.732 58.9248 17.6363 59.1462 17.4622C59.3675 17.288 59.5879 17.0512 59.8073 16.7518C60.0345 16.4518 60.2573 16.0973 60.4759 15.6883C60.6939 15.2715 60.9046 14.8121 61.108 14.3102C61.1408 14.2293 61.1908 14.1666 61.2578 14.1221C61.3242 14.0699 61.4003 14.0404 61.4859 14.0336C61.6105 14.0238 61.7155 14.0626 61.8007 14.1499C61.8937 14.2366 61.9445 14.3345 61.9531 14.4436C61.9593 14.5214 61.9489 14.5889 61.922 14.6458C61.8427 14.8323 61.743 15.0596 61.623 15.3276C61.5031 15.5957 61.3642 15.8731 61.2066 16.1598C61.0489 16.4465 60.8717 16.7347 60.6751 17.0244C60.4857 17.3058 60.2788 17.565 60.0545 17.8021C59.8296 18.0314 59.59 18.2226 59.3356 18.3759C59.0812 18.5291 58.8177 18.6165 58.5451 18.6379C58.1947 18.6655 57.8812 18.6157 57.6047 18.4886C57.3283 18.3615 57.0868 18.1806 56.8803 17.9461C56.6815 17.711 56.5222 17.4296 56.4024 17.1021C56.2898 16.7662 56.2181 16.4035 56.1875 16.014ZM56.887 9.07057C56.8785 8.96153 56.8283 8.87144 56.7365 8.8003C56.6518 8.72075 56.555 8.68527 56.446 8.69385C56.3369 8.70244 56.2468 8.75263 56.1757 8.84443C56.1039 8.92844 56.0724 9.02497 56.0809 9.13401C56.0895 9.24305 56.1358 9.33344 56.2198 9.4052C56.3038 9.47695 56.4004 9.50854 56.5094 9.49996C56.6184 9.49137 56.7088 9.44508 56.7806 9.36106C56.8601 9.27644 56.8956 9.1796 56.887 9.07057Z" fill="#4563FF"/>
</svg>
