<svg width="299" height="291" viewBox="0 0 299 291" fill="none" xmlns="http://www.w3.org/2000/svg">
<rect x="26" width="254" height="291" rx="8" fill="#EEEEEE"/>
<path d="M93.6002 230.613C68.6195 226.406 31.2002 244.064 31.2002 244.064V288.083H281.709L280.8 240.385C280.8 240.385 242.746 235.534 218.4 241.462C193.302 247.572 181.604 272.359 156 271.526C127.808 270.608 121.528 235.316 93.6002 230.613Z" fill="url(#paint0_linear_115:351)"/>
<path d="M93.6002 178.113C65.1729 176.232 31.2002 220.731 31.2002 220.731V290.417H281.709L280.8 205.385C280.8 205.385 252.223 272.446 218.4 276.461C193.13 279.461 177.893 263.588 156 248.192C126.888 227.72 127.316 180.344 93.6002 178.113Z" fill="url(#paint1_linear_115:351)"/>
<path d="M31.2002 220.731C31.2002 220.731 65.1729 176.232 93.6002 178.113C127.316 180.344 126.888 227.72 156 248.192C177.893 263.588 193.13 279.461 218.4 276.461C252.223 272.446 280.8 205.385 280.8 205.385" stroke="#3673E8" stroke-width="2"/>
<path d="M31.2002 244.064C31.2002 244.064 68.6195 226.406 93.6002 230.613C121.528 235.316 127.808 270.608 156 271.526C181.604 272.359 193.302 247.572 218.4 241.462C242.746 235.534 280.8 240.385 280.8 240.385" stroke="#61B8FF" stroke-width="2"/>
<path d="M158.978 170L161.362 164.998L155.589 165.002L157.978 170L158.978 170ZM158.024 284.453L155.639 289.455L161.412 289.45L159.024 284.452L158.024 284.453ZM157.977 168.011L157.978 170.019L158.978 170.018L158.977 168.011L157.977 168.011ZM157.978 172.026L157.979 174.033L158.979 174.032L158.978 172.025L157.978 172.026ZM157.98 176.041L157.981 178.048L158.981 178.047L158.98 176.04L157.98 176.041ZM157.982 180.055L157.982 182.062L158.982 182.062L158.982 180.054L157.982 180.055ZM157.983 184.07L157.984 186.077L158.984 186.076L158.983 184.069L157.983 184.07ZM157.985 188.084L157.986 190.092L158.986 190.091L158.985 188.084L157.985 188.084ZM157.986 192.099L157.987 194.106L158.987 194.105L158.986 192.098L157.986 192.099ZM157.988 196.114L157.989 198.121L158.989 198.12L158.988 196.113L157.988 196.114ZM157.99 200.128L157.991 202.135L158.991 202.135L158.99 200.127L157.99 200.128ZM157.991 204.143L157.992 206.15L158.992 206.149L158.991 204.142L157.991 204.143ZM157.993 208.157L157.994 210.165L158.994 210.164L158.993 208.157L157.993 208.157ZM157.995 212.172L157.995 214.179L158.995 214.178L158.995 212.171L157.995 212.172ZM157.996 216.187L157.997 218.194L158.997 218.193L158.996 216.186L157.996 216.187ZM157.998 220.201L157.999 222.208L158.999 222.208L158.998 220.2L157.998 220.201ZM157.999 224.216L158 226.223L159 226.222L158.999 224.215L157.999 224.216ZM158.001 228.23L158.002 230.238L159.002 230.237L159.001 228.23L158.001 228.23ZM158.003 232.245L158.003 234.252L159.003 234.251L159.003 232.244L158.003 232.245ZM158.004 236.26L158.005 238.267L159.005 238.266L159.004 236.259L158.004 236.26ZM158.006 240.274L158.007 242.281L159.007 242.281L159.006 240.273L158.006 240.274ZM158.007 244.289L158.008 246.296L159.008 246.295L159.007 244.288L158.007 244.289ZM158.009 248.303L158.01 250.311L159.01 250.31L159.009 248.303L158.009 248.303ZM158.011 252.318L158.011 254.325L159.011 254.325L159.011 252.317L158.011 252.318ZM158.012 256.333L158.013 258.34L159.013 258.339L159.012 256.332L158.012 256.333ZM158.014 260.347L158.015 262.354L159.015 262.354L159.014 260.346L158.014 260.347ZM158.016 264.362L158.016 266.369L159.016 266.368L159.016 264.361L158.016 264.362ZM158.017 268.376L158.018 270.384L159.018 270.383L159.017 268.376L158.017 268.376ZM158.019 272.391L158.02 274.398L159.02 274.398L159.019 272.39L158.019 272.391ZM158.02 276.406L158.021 278.413L159.021 278.412L159.02 276.405L158.02 276.406ZM158.022 280.42L158.023 282.428L159.023 282.427L159.022 280.419L158.022 280.42ZM158.024 284.435L158.024 286.442L159.024 286.441L159.024 284.434L158.024 284.435Z" fill="#191919"/>
<defs>
<linearGradient id="paint0_linear_115:351" x1="156" y1="229.965" x2="156" y2="288.083" gradientUnits="userSpaceOnUse">
<stop stop-color="#61B8FF" stop-opacity="0.2"/>
<stop offset="1" stop-color="#61B8FF" stop-opacity="0"/>
</linearGradient>
<linearGradient id="paint1_linear_115:351" x1="156" y1="178.055" x2="156" y2="290.417" gradientUnits="userSpaceOnUse">
<stop stop-color="#3673E8" stop-opacity="0.2"/>
<stop offset="1" stop-color="#3673E8" stop-opacity="0"/>
</linearGradient>
</defs>
</svg>
