<svg width="20" height="17" viewBox="0 0 20 17" fill="none" xmlns="http://www.w3.org/2000/svg">
<path d="M10 1.35418V7.5L10.0005 8.005L17.442 8.004L15.7196 6.28026C15.4534 6.01395 15.4292 5.59728 15.6471 5.3037L15.7198 5.2196C15.9861 4.95338 16.4027 4.92924 16.6963 5.14715L16.7804 5.21978L19.777 8.2174C20.043 8.4835 20.0674 8.8997 19.85 9.1933L19.7775 9.2774L16.7809 12.2808C16.4884 12.5741 16.0135 12.5746 15.7203 12.282C15.4537 12.0161 15.429 11.5994 15.6465 11.3056L15.7191 11.2214L17.432 9.504L10.0005 9.505L10 16.25C10 16.7164 9.5788 17.0697 9.1196 16.9886L0.61955 15.4873C0.26121 15.424 0 15.1126 0 14.7487V2.75002C0 2.38271 0.26601 2.06945 0.62847 2.00993L9.1285 0.614099C9.5851 0.539109 10 0.891449 10 1.35418ZM8.5 2.23739L1.5 3.3869V14.1196L8.5 15.3559V2.23739Z" fill="#191919"/>
</svg>
