<svg width="244" height="126" viewBox="0 0 244 126" fill="none" xmlns="http://www.w3.org/2000/svg">
<rect x="52.4004" y="60.0571" width="14.6036" height="64.0997" rx="7.30178" fill="url(#paint0_linear_91:1690)"/>
<rect x="27.1958" y="63.8083" width="14.6036" height="60.3487" rx="7.30178" fill="url(#paint1_linear_91:1690)"/>
<rect x="1.99072" y="63.8083" width="14.6036" height="60.3487" rx="7.30178" fill="url(#paint2_linear_91:1690)"/>
<rect x="77.605" y="43.9421" width="14.6036" height="80.2145" rx="7.30178" fill="url(#paint3_linear_91:1690)"/>
<rect x="102.809" y="73.1135" width="14.6036" height="51.0456" rx="7.30178" fill="url(#paint4_linear_91:1690)"/>
<rect x="128.015" y="67.1455" width="14.6036" height="57.012" rx="7.30178" fill="url(#paint5_linear_91:1690)"/>
<rect x="153.219" y="85.178" width="14.6036" height="38.9803" rx="7.30178" fill="url(#paint6_linear_91:1690)"/>
<rect x="178.424" y="30" width="14.6036" height="93.0312" rx="7.30178" fill="url(#paint7_linear_91:1690)"/>
<rect x="203.628" y="39.2805" width="14.6036" height="83.7502" rx="7.30178" fill="url(#paint8_linear_91:1690)"/>
<rect x="228.833" y="39.2805" width="14.6036" height="83.7502" rx="7.30178" fill="url(#paint9_linear_91:1690)"/>
<path d="M160.978 5.99961L163.362 0.997747L157.589 1.00225L159.978 6.00039L160.978 5.99961ZM160.024 120.453L157.639 125.455L163.412 125.45L161.024 120.452L160.024 120.453ZM159.977 4.01134L159.978 6.01864L160.978 6.01786L160.977 4.01056L159.977 4.01134ZM159.978 8.02594L159.979 10.0332L160.979 10.0325L160.978 8.02516L159.978 8.02594ZM159.98 12.0405L159.981 14.0478L160.981 14.0471L160.98 12.0398L159.98 12.0405ZM159.982 16.0551L159.982 18.0624L160.982 18.0617L160.982 16.0544L159.982 16.0551ZM159.983 20.0697L159.984 22.077L160.984 22.0763L160.983 20.069L159.983 20.0697ZM159.985 24.0844L159.986 26.0917L160.986 26.0909L160.985 24.0836L159.985 24.0844ZM159.986 28.099L159.987 30.1063L160.987 30.1055L160.986 28.0982L159.986 28.099ZM159.988 32.1136L159.989 34.1209L160.989 34.1201L160.988 32.1128L159.988 32.1136ZM159.99 36.1282L159.991 38.1355L160.991 38.1347L160.99 36.1274L159.99 36.1282ZM159.991 40.1428L159.992 42.1501L160.992 42.1493L160.991 40.142L159.991 40.1428ZM159.993 44.1574L159.994 46.1647L160.994 46.1639L160.993 44.1566L159.993 44.1574ZM159.995 48.172L159.995 50.1793L160.995 50.1785L160.995 48.1712L159.995 48.172ZM159.996 52.1866L159.997 54.1939L160.997 54.1931L160.996 52.1858L159.996 52.1866ZM159.998 56.2012L159.999 58.2085L160.999 58.2077L160.998 56.2004L159.998 56.2012ZM159.999 60.2158L160 62.2231L161 62.2223L160.999 60.215L159.999 60.2158ZM160.001 64.2304L160.002 66.2377L161.002 66.2369L161.001 64.2296L160.001 64.2304ZM160.003 68.245L160.003 70.2523L161.003 70.2515L161.003 68.2442L160.003 68.245ZM160.004 72.2596L160.005 74.2669L161.005 74.2661L161.004 72.2588L160.004 72.2596ZM160.006 76.2742L160.007 78.2815L161.007 78.2807L161.006 76.2734L160.006 76.2742ZM160.007 80.2888L160.008 82.2961L161.008 82.2953L161.007 80.288L160.007 80.2888ZM160.009 84.3034L160.01 86.3107L161.01 86.3099L161.009 84.3026L160.009 84.3034ZM160.011 88.318L160.011 90.3253L161.011 90.3245L161.011 88.3172L160.011 88.318ZM160.012 92.3326L160.013 94.3399L161.013 94.3391L161.012 92.3318L160.012 92.3326ZM160.014 96.3472L160.015 98.3545L161.015 98.3537L161.014 96.3464L160.014 96.3472ZM160.016 100.362L160.016 102.369L161.016 102.368L161.016 100.361L160.016 100.362ZM160.017 104.376L160.018 106.384L161.018 106.383L161.017 104.376L160.017 104.376ZM160.019 108.391L160.02 110.398L161.02 110.398L161.019 108.39L160.019 108.391ZM160.02 112.406L160.021 114.413L161.021 114.412L161.02 112.405L160.02 112.406ZM160.022 116.42L160.023 118.428L161.023 118.427L161.022 116.419L160.022 116.42ZM160.024 120.435L160.024 122.442L161.024 122.441L161.024 120.434L160.024 120.435Z" fill="#191919"/>
<path d="M6.11718 73.2456L0.587463 73.5903L3.39398 78.6358L6.60328 74.1195L6.11718 73.2456ZM24.9111 63.9846L24.7443 63.5132L24.9111 63.9846ZM51.6515 58.7867L51.8209 59.2571L51.6515 58.7867ZM79.347 42.3266L79.3145 42.8255L79.347 42.3266ZM104.177 71.7814L104.084 72.2726L104.177 71.7814ZM132.828 63.9846L132.888 63.4882L132.828 63.9846ZM161.478 83.9099L161.428 84.4074L161.478 83.9099ZM190.129 30.1981L190.192 30.6942L190.129 30.1981ZM220.689 37.995L220.741 37.4977L220.689 37.995ZM238.642 38.7486L243.756 40.878L243.463 35.112L238.591 37.7499L238.642 38.7486ZM6.1739 74.3582C12.7297 70.5437 17.0065 67.3126 25.0779 64.4559L24.7443 63.5132C16.556 66.4112 12.1448 69.7271 5.67099 73.4939L6.1739 74.3582ZM25.0779 64.4559C29.9891 62.7178 34.1372 62.3155 38.3387 61.9027C42.5398 61.49 46.7932 61.0669 51.8209 59.2571L51.4822 58.3162C46.583 60.0798 42.4409 60.4949 38.2409 60.9075C34.0411 61.3201 29.7825 61.7301 24.7443 63.5132L25.0779 64.4559ZM51.8209 59.2571C57.9576 57.0481 61.7501 52.6172 65.5172 48.9788C69.2994 45.3258 73.084 42.4196 79.3145 42.8255L79.3795 41.8277C72.7128 41.3933 68.659 44.5541 64.8225 48.2595C60.9708 51.9796 57.3641 56.1989 51.4822 58.3162L51.8209 59.2571ZM79.3145 42.8255C83.1297 43.0741 85.5646 44.7703 87.3409 47.2407C89.1417 49.7452 90.262 53.0389 91.3993 56.4857C92.5255 59.8989 93.6672 63.4583 95.5251 66.3425C97.3998 69.2529 100.017 71.4994 104.084 72.2726L104.271 71.2902C100.525 70.5781 98.1236 68.5298 96.3658 65.801C94.5911 63.046 93.4871 59.6219 92.3489 56.1724C91.2219 52.7564 90.0592 49.3083 88.1528 46.6569C86.2218 43.9714 83.5254 42.0978 79.3795 41.8277L79.3145 42.8255ZM104.084 72.2726C109.998 73.397 114.413 70.9992 118.692 68.6061C122.998 66.1984 127.164 63.7988 132.767 64.4809L132.888 63.4882C126.915 62.7611 122.472 65.3468 118.204 67.7333C113.911 70.1344 109.79 72.3397 104.271 71.2902L104.084 72.2726ZM132.767 64.4809C139.526 65.3036 143.069 69.7584 146.747 74.3689C150.4 78.9471 154.188 83.6799 161.428 84.4074L161.528 83.4124C154.755 82.7318 151.205 78.3525 147.529 73.7452C143.879 69.1703 140.103 64.3665 132.888 63.4882L132.767 64.4809ZM161.428 84.4074C164.703 84.7365 167.267 84.1779 169.267 82.8912C171.263 81.6069 172.639 79.6343 173.612 77.241C175.545 72.4842 175.943 65.8972 176.337 59.2536C176.733 52.5583 177.125 45.7825 178.981 40.4753C179.906 37.8314 181.184 35.5834 182.982 33.9012C184.774 32.2246 187.108 31.0846 190.192 30.6942L190.066 29.7021C186.79 30.1169 184.256 31.3396 182.299 33.171C180.348 34.9967 178.997 37.4022 178.037 40.1452C176.126 45.6118 175.732 52.5437 175.338 59.1944C174.941 65.8968 174.543 72.2941 172.685 76.8645C171.763 79.1348 170.496 80.9114 168.726 82.0502C166.96 83.1865 164.636 83.7247 161.528 83.4124L161.428 84.4074ZM190.192 30.6942C196.195 29.9341 200.655 31.5174 205.196 33.4891C209.731 35.4584 214.384 37.8382 220.637 38.4923L220.741 37.4977C214.678 36.8634 210.19 34.5675 205.594 32.5718C201.004 30.5786 196.341 28.9077 190.066 29.7021L190.192 30.6942ZM220.637 38.4923C226.394 39.0945 234.266 38.9217 239.136 38.7234L239.096 37.7242C234.226 37.9225 226.418 38.0916 220.741 37.4977L220.637 38.4923Z" fill="#01C7F2"/>
<path d="M9.94238 118.041H8.53125V112.602L6.84668 113.124V111.977L9.79102 110.922H9.94238V118.041Z" fill="#191919"/>
<path d="M35.1943 118.041H30.3213V117.074L32.6211 114.623C32.9368 114.278 33.1696 113.977 33.3193 113.72C33.4723 113.463 33.5488 113.219 33.5488 112.988C33.5488 112.672 33.4691 112.424 33.3096 112.245C33.1501 112.063 32.9222 111.972 32.626 111.972C32.307 111.972 32.0547 112.083 31.8691 112.304C31.6868 112.522 31.5957 112.81 31.5957 113.168H30.1797C30.1797 112.735 30.2822 112.34 30.4873 111.982C30.6956 111.624 30.9886 111.344 31.3662 111.142C31.7438 110.937 32.1719 110.834 32.6504 110.834C33.3828 110.834 33.9508 111.01 34.3545 111.362C34.7614 111.713 34.9648 112.21 34.9648 112.851C34.9648 113.202 34.8737 113.56 34.6914 113.925C34.5091 114.29 34.1966 114.714 33.7539 115.199L32.1377 116.904H35.1943V118.041Z" fill="#191919"/>
<path d="M57.5601 113.862H58.312C58.6701 113.862 58.9354 113.772 59.1079 113.593C59.2804 113.414 59.3667 113.176 59.3667 112.88C59.3667 112.594 59.2804 112.371 59.1079 112.211C58.9386 112.052 58.7043 111.972 58.4048 111.972C58.1346 111.972 57.9084 112.047 57.7261 112.197C57.5438 112.343 57.4526 112.535 57.4526 112.773H56.0415C56.0415 112.402 56.1408 112.07 56.3394 111.777C56.5412 111.48 56.8211 111.249 57.1792 111.083C57.5405 110.917 57.9377 110.834 58.3706 110.834C59.1226 110.834 59.7118 111.015 60.1382 111.376C60.5646 111.734 60.7778 112.229 60.7778 112.861C60.7778 113.186 60.6785 113.486 60.48 113.759C60.2814 114.032 60.021 114.242 59.6987 114.389C60.0991 114.532 60.397 114.747 60.5923 115.033C60.7909 115.32 60.8901 115.658 60.8901 116.049C60.8901 116.681 60.659 117.187 60.1968 117.568C59.7378 117.948 59.1291 118.139 58.3706 118.139C57.661 118.139 57.0799 117.952 56.6274 117.577C56.1782 117.203 55.9536 116.708 55.9536 116.093H57.3647C57.3647 116.36 57.464 116.578 57.6626 116.747C57.8644 116.917 58.1118 117.001 58.4048 117.001C58.7401 117.001 59.0021 116.913 59.1909 116.738C59.383 116.559 59.479 116.323 59.479 116.03C59.479 115.32 59.0884 114.965 58.3071 114.965H57.5601V113.862Z" fill="#191919"/>
<path d="M86.1025 115.802H86.9082V116.94H86.1025V118.478H84.6914V116.94H81.7764L81.7129 116.052L84.6768 111.369H86.1025V115.802ZM83.1191 115.802H84.6914V113.293L84.5986 113.454L83.1191 115.802Z" fill="#191919"/>
<path d="M110.568 111.723L107.819 118.041H106.33L109.084 112.074H105.549V110.932H110.568V111.723Z" fill="#191919"/>
<path d="M137.17 112.822C137.17 113.167 137.084 113.473 136.911 113.74C136.739 114.006 136.501 114.22 136.198 114.379C136.543 114.545 136.817 114.775 137.019 115.068C137.22 115.357 137.321 115.699 137.321 116.093C137.321 116.725 137.106 117.224 136.677 117.592C136.247 117.957 135.663 118.139 134.924 118.139C134.185 118.139 133.599 117.955 133.166 117.587C132.733 117.219 132.517 116.721 132.517 116.093C132.517 115.699 132.618 115.356 132.819 115.063C133.021 114.77 133.293 114.542 133.635 114.379C133.332 114.22 133.094 114.006 132.922 113.74C132.753 113.473 132.668 113.167 132.668 112.822C132.668 112.216 132.87 111.734 133.273 111.376C133.677 111.015 134.226 110.834 134.919 110.834C135.609 110.834 136.156 111.013 136.56 111.371C136.966 111.726 137.17 112.21 137.17 112.822ZM135.905 115.99C135.905 115.681 135.816 115.434 135.637 115.248C135.458 115.063 135.217 114.97 134.914 114.97C134.615 114.97 134.375 115.063 134.196 115.248C134.017 115.431 133.928 115.678 133.928 115.99C133.928 116.293 134.016 116.537 134.191 116.723C134.367 116.908 134.611 117.001 134.924 117.001C135.23 117.001 135.469 116.912 135.642 116.733C135.817 116.554 135.905 116.306 135.905 115.99ZM135.759 112.89C135.759 112.613 135.686 112.392 135.539 112.226C135.393 112.057 135.186 111.972 134.919 111.972C134.655 111.972 134.45 112.053 134.304 112.216C134.157 112.379 134.084 112.603 134.084 112.89C134.084 113.173 134.157 113.401 134.304 113.573C134.45 113.746 134.657 113.832 134.924 113.832C135.191 113.832 135.396 113.746 135.539 113.573C135.686 113.401 135.759 113.173 135.759 112.89Z" fill="#191919"/>
<path d="M160.642 115.199C160.274 115.561 159.845 115.741 159.353 115.741C158.725 115.741 158.222 115.527 157.844 115.097C157.467 114.664 157.278 114.081 157.278 113.349C157.278 112.883 157.379 112.457 157.581 112.07C157.786 111.679 158.07 111.376 158.435 111.161C158.8 110.943 159.21 110.834 159.666 110.834C160.134 110.834 160.551 110.951 160.916 111.186C161.28 111.42 161.563 111.757 161.765 112.197C161.967 112.636 162.069 113.139 162.073 113.705V114.228C162.073 115.413 161.778 116.344 161.189 117.021C160.6 117.698 159.765 118.059 158.684 118.105L158.337 118.11V116.933L158.65 116.928C159.877 116.873 160.541 116.296 160.642 115.199ZM159.7 114.662C159.928 114.662 160.123 114.604 160.286 114.487C160.452 114.369 160.577 114.228 160.662 114.062V113.481C160.662 113.002 160.57 112.631 160.388 112.367C160.206 112.104 159.962 111.972 159.656 111.972C159.373 111.972 159.14 112.102 158.958 112.363C158.775 112.62 158.684 112.944 158.684 113.334C158.684 113.722 158.772 114.041 158.948 114.291C159.127 114.539 159.377 114.662 159.7 114.662Z" fill="#191919"/>
<path d="M182.579 118.041H181.167V112.602L179.483 113.124V111.977L182.427 110.922H182.579V118.041ZM189.678 115.102C189.678 116.085 189.475 116.837 189.068 117.358C188.661 117.878 188.065 118.139 187.281 118.139C186.506 118.139 185.914 117.883 185.503 117.372C185.093 116.861 184.883 116.129 184.874 115.175V113.866C184.874 112.874 185.079 112.12 185.489 111.606C185.902 111.091 186.496 110.834 187.271 110.834C188.046 110.834 188.638 111.09 189.048 111.601C189.458 112.109 189.668 112.839 189.678 113.793V115.102ZM188.267 113.666C188.267 113.077 188.186 112.649 188.023 112.382C187.863 112.112 187.613 111.977 187.271 111.977C186.939 111.977 186.693 112.105 186.534 112.363C186.377 112.616 186.294 113.015 186.285 113.559V115.287C186.285 115.867 186.363 116.298 186.519 116.581C186.679 116.861 186.932 117.001 187.281 117.001C187.626 117.001 187.875 116.866 188.028 116.596C188.181 116.326 188.261 115.912 188.267 115.356V113.666Z" fill="#191919"/>
<path d="M208.538 118.041H207.126V112.602L205.442 113.124V111.977L208.386 110.922H208.538V118.041ZM212.288 113.862H213.04C213.398 113.862 213.663 113.772 213.835 113.593C214.008 113.414 214.094 113.176 214.094 112.88C214.094 112.594 214.008 112.371 213.835 112.211C213.666 112.052 213.432 111.972 213.132 111.972C212.862 111.972 212.636 112.047 212.454 112.197C212.271 112.343 212.18 112.535 212.18 112.773H210.769C210.769 112.402 210.868 112.07 211.067 111.777C211.269 111.48 211.549 111.249 211.907 111.083C212.268 110.917 212.665 110.834 213.098 110.834C213.85 110.834 214.439 111.015 214.866 111.376C215.292 111.734 215.505 112.229 215.505 112.861C215.505 113.186 215.406 113.486 215.208 113.759C215.009 114.032 214.749 114.242 214.426 114.389C214.827 114.532 215.125 114.747 215.32 115.033C215.518 115.32 215.618 115.658 215.618 116.049C215.618 116.681 215.387 117.187 214.924 117.568C214.465 117.948 213.857 118.139 213.098 118.139C212.389 118.139 211.807 117.952 211.355 117.577C210.906 117.203 210.681 116.708 210.681 116.093H212.092C212.092 116.36 212.192 116.578 212.39 116.747C212.592 116.917 212.839 117.001 213.132 117.001C213.468 117.001 213.73 116.913 213.918 116.738C214.111 116.559 214.207 116.323 214.207 116.03C214.207 115.32 213.816 114.965 213.035 114.965H212.288V113.862Z" fill="#191919"/>
<path d="M233.499 118.041H232.087V112.602L230.403 113.124V111.977L233.347 110.922H233.499V118.041ZM239.988 115.365H240.793V116.503H239.988V118.041H238.577V116.503H235.662L235.598 115.615L238.562 110.932H239.988V115.365ZM237.004 115.365H238.577V112.856L238.484 113.017L237.004 115.365Z" fill="#191919"/>
<g filter="url(#filter0_df_91:1690)">
<circle cx="160.5" cy="83.5" r="2.5" fill="#4087F3"/>
<circle cx="160.5" cy="83.5" r="2.5" stroke="white"/>
</g>
<defs>
<filter id="filter0_df_91:1690" x="153.5" y="79.5" width="14" height="15" filterUnits="userSpaceOnUse" color-interpolation-filters="sRGB">
<feFlood flood-opacity="0" result="BackgroundImageFix"/>
<feColorMatrix in="SourceAlpha" type="matrix" values="0 0 0 0 0 0 0 0 0 0 0 0 0 0 0 0 0 0 127 0" result="hardAlpha"/>
<feOffset dy="4"/>
<feGaussianBlur stdDeviation="2"/>
<feComposite in2="hardAlpha" operator="out"/>
<feColorMatrix type="matrix" values="0 0 0 0 0 0 0 0 0 0 0 0 0 0 0 0 0 0 0.25 0"/>
<feBlend mode="normal" in2="BackgroundImageFix" result="effect1_dropShadow_91:1690"/>
<feBlend mode="normal" in="SourceGraphic" in2="effect1_dropShadow_91:1690" result="shape"/>
<feGaussianBlur stdDeviation="0.5" result="effect2_foregroundBlur_91:1690"/>
</filter>
<linearGradient id="paint0_linear_91:1690" x1="59.7022" y1="60.0571" x2="59.7022" y2="124.157" gradientUnits="userSpaceOnUse">
<stop stop-color="#4087F3"/>
<stop offset="1" stop-color="white" stop-opacity="0"/>
</linearGradient>
<linearGradient id="paint1_linear_91:1690" x1="34.4976" y1="63.8083" x2="34.4976" y2="124.157" gradientUnits="userSpaceOnUse">
<stop stop-color="#4087F3"/>
<stop offset="1" stop-color="white" stop-opacity="0"/>
</linearGradient>
<linearGradient id="paint2_linear_91:1690" x1="9.2925" y1="63.8083" x2="9.2925" y2="124.157" gradientUnits="userSpaceOnUse">
<stop stop-color="#4087F3"/>
<stop offset="1" stop-color="white" stop-opacity="0"/>
</linearGradient>
<linearGradient id="paint3_linear_91:1690" x1="84.9068" y1="43.9421" x2="84.9068" y2="124.157" gradientUnits="userSpaceOnUse">
<stop stop-color="#4087F3"/>
<stop offset="1" stop-color="white" stop-opacity="0"/>
</linearGradient>
<linearGradient id="paint4_linear_91:1690" x1="110.111" y1="73.1135" x2="110.111" y2="124.159" gradientUnits="userSpaceOnUse">
<stop stop-color="#4087F3"/>
<stop offset="1" stop-color="white" stop-opacity="0"/>
</linearGradient>
<linearGradient id="paint5_linear_91:1690" x1="135.317" y1="67.1455" x2="135.317" y2="124.157" gradientUnits="userSpaceOnUse">
<stop stop-color="#4087F3"/>
<stop offset="1" stop-color="white" stop-opacity="0"/>
</linearGradient>
<linearGradient id="paint6_linear_91:1690" x1="160.521" y1="85.178" x2="160.521" y2="124.158" gradientUnits="userSpaceOnUse">
<stop stop-color="#4087F3"/>
<stop offset="1" stop-color="white" stop-opacity="0"/>
</linearGradient>
<linearGradient id="paint7_linear_91:1690" x1="185.726" y1="30" x2="185.726" y2="123.031" gradientUnits="userSpaceOnUse">
<stop stop-color="#4087F3"/>
<stop offset="1" stop-color="white" stop-opacity="0"/>
</linearGradient>
<linearGradient id="paint8_linear_91:1690" x1="210.93" y1="39.2805" x2="210.93" y2="123.031" gradientUnits="userSpaceOnUse">
<stop stop-color="#4087F3"/>
<stop offset="1" stop-color="white" stop-opacity="0"/>
</linearGradient>
<linearGradient id="paint9_linear_91:1690" x1="236.135" y1="39.2805" x2="236.135" y2="123.031" gradientUnits="userSpaceOnUse">
<stop stop-color="#4087F3"/>
<stop offset="1" stop-color="white" stop-opacity="0"/>
</linearGradient>
</defs>
</svg>
