<svg width="25" height="24" viewBox="0 0 25 24" fill="none" xmlns="http://www.w3.org/2000/svg">
<path d="M15.8286 17.999C16.1608 17.999 16.4301 18.2678 16.4301 18.5995C16.4301 18.8942 16.2173 19.1395 15.9368 19.1903L15.8286 19.2H3.83154C3.49937 19.2 3.23009 18.9312 3.23009 18.5995C3.23009 18.3047 3.44285 18.0595 3.72342 18.0086L3.83154 17.999H15.8286ZM21.829 10.8085C22.1609 10.8085 22.4301 11.0773 22.4301 11.409C22.4301 11.7038 22.2174 11.949 21.937 11.9998L21.829 12.0095H3.83123C3.49922 12.0095 3.23009 11.7406 3.23009 11.409C3.23009 11.1142 3.44274 10.869 3.72317 10.8181L3.83123 10.8085H21.829ZM17.0303 3.60001C17.3624 3.60001 17.6315 3.86887 17.6315 4.20051C17.6315 4.49531 17.4189 4.74051 17.1384 4.79135L17.0303 4.80103H3.83123C3.49922 4.80103 3.23009 4.53217 3.23009 4.20051C3.23009 3.90572 3.44274 3.66052 3.72317 3.60968L3.83123 3.60001H17.0303Z" stroke="#EEEEEE"/>
</svg>
