<svg width="81" height="81" viewBox="0 0 81 81" fill="none" xmlns="http://www.w3.org/2000/svg">
<g filter="url(#filter0_i_91:1674)">
<ellipse cx="40.0106" cy="40.5" rx="40.0018" ry="40" fill="#EEEEEE"/>
</g>
<path d="M27.6885 42.0781H29.6221V44.8086H27.6885V48.5H24.3018V44.8086H17.3057L17.1533 42.6758L24.2666 31.4375H27.6885V42.0781ZM20.5283 42.0781H24.3018V36.0547L24.0791 36.4414L20.5283 42.0781ZM35.3755 38.4688H37.1802C38.0396 38.4688 38.6763 38.2539 39.0904 37.8242C39.5044 37.3945 39.7114 36.8242 39.7114 36.1133C39.7114 35.4258 39.5044 34.8906 39.0904 34.5078C38.6841 34.125 38.1216 33.9336 37.4029 33.9336C36.7544 33.9336 36.2114 34.1133 35.7739 34.4727C35.3364 34.8242 35.1177 35.2852 35.1177 35.8555H31.731C31.731 34.9648 31.9693 34.168 32.4458 33.4648C32.9302 32.7539 33.6021 32.1992 34.4614 31.8008C35.3286 31.4023 36.2818 31.2031 37.3208 31.2031C39.1255 31.2031 40.5396 31.6367 41.563 32.5039C42.5864 33.3633 43.0982 34.5508 43.0982 36.0664C43.0982 36.8477 42.8599 37.5664 42.3833 38.2227C41.9068 38.8789 41.2818 39.3828 40.5083 39.7344C41.4693 40.0781 42.1841 40.5938 42.6529 41.2812C43.1294 41.9688 43.3677 42.7812 43.3677 43.7188C43.3677 45.2344 42.813 46.4492 41.7036 47.3633C40.6021 48.2773 39.1411 48.7344 37.3208 48.7344C35.6177 48.7344 34.2232 48.2852 33.1372 47.3867C32.0591 46.4883 31.52 45.3008 31.52 43.8242H34.9068C34.9068 44.4648 35.145 44.9883 35.6216 45.3945C36.106 45.8008 36.6997 46.0039 37.4029 46.0039C38.2075 46.0039 38.8364 45.793 39.2896 45.3711C39.7505 44.9414 39.981 44.375 39.981 43.6719C39.981 41.9688 39.0435 41.1172 37.1685 41.1172H35.3755V38.4688ZM46.1446 34.7188C46.1446 33.6719 46.4844 32.8242 47.1641 32.1758C47.8438 31.5195 48.7344 31.1914 49.836 31.1914C50.9532 31.1914 51.8516 31.5156 52.5313 32.1641C53.211 32.8047 53.5508 33.6758 53.5508 34.7773V35.6211C53.5508 36.6758 53.211 37.5234 52.5313 38.1641C51.8516 38.8047 50.961 39.125 49.8594 39.125C48.75 39.125 47.8516 38.8047 47.1641 38.1641C46.4844 37.5156 46.1446 36.6445 46.1446 35.5508V34.7188ZM48.3946 35.6211C48.3946 36.0898 48.5274 36.4688 48.793 36.7578C49.0664 37.0391 49.4219 37.1797 49.8594 37.1797C50.2969 37.1797 50.6446 37.0352 50.9024 36.7461C51.1602 36.457 51.2891 36.0703 51.2891 35.5859V34.7188C51.2891 34.25 51.1602 33.8711 50.9024 33.582C50.6446 33.293 50.2891 33.1484 49.836 33.1484C49.4063 33.1484 49.0586 33.293 48.793 33.582C48.5274 33.8633 48.3946 34.2578 48.3946 34.7656V35.6211ZM54.3008 44.3164C54.3008 43.2617 54.6446 42.4141 55.3321 41.7734C56.0196 41.125 56.9102 40.8008 58.0039 40.8008C59.1133 40.8008 60.0079 41.1211 60.6875 41.7617C61.375 42.3945 61.7188 43.2695 61.7188 44.3867V45.2305C61.7188 46.2773 61.3829 47.125 60.711 47.7734C60.0391 48.4141 59.1446 48.7344 58.0274 48.7344C56.9024 48.7344 56 48.4102 55.3204 47.7617C54.6407 47.1133 54.3008 46.2539 54.3008 45.1836V44.3164ZM56.5508 45.2305C56.5508 45.6602 56.6914 46.0273 56.9727 46.332C57.2539 46.6367 57.6055 46.7891 58.0274 46.7891C58.9805 46.7891 59.4571 46.2617 59.4571 45.207V44.3164C59.4571 43.8477 59.3243 43.4727 59.0586 43.1914C58.793 42.9023 58.4414 42.7578 58.0039 42.7578C57.5664 42.7578 57.2149 42.9023 56.9493 43.1914C56.6836 43.4727 56.5508 43.8594 56.5508 44.3516V45.2305ZM50.5274 47.2227L48.875 46.332L57.2071 32.9961L58.8594 33.8867L50.5274 47.2227Z" fill="#191919"/>
<defs>
<filter id="filter0_i_91:1674" x="0.00878906" y="-3.5" width="84.0039" height="84" filterUnits="userSpaceOnUse" color-interpolation-filters="sRGB">
<feFlood flood-opacity="0" result="BackgroundImageFix"/>
<feBlend mode="normal" in="SourceGraphic" in2="BackgroundImageFix" result="shape"/>
<feColorMatrix in="SourceAlpha" type="matrix" values="0 0 0 0 0 0 0 0 0 0 0 0 0 0 0 0 0 0 127 0" result="hardAlpha"/>
<feOffset dx="8" dy="-4"/>
<feGaussianBlur stdDeviation="2"/>
<feComposite in2="hardAlpha" operator="arithmetic" k2="-1" k3="1"/>
<feColorMatrix type="matrix" values="0 0 0 0 0 0 0 0 0 0 0 0 0 0 0 0 0 0 0.25 0"/>
<feBlend mode="normal" in2="shape" result="effect1_innerShadow_91:1674"/>
</filter>
</defs>
</svg>
