<svg width="28" height="22" viewBox="0 0 28 22" fill="none" xmlns="http://www.w3.org/2000/svg">
<path d="M9.0071 4.33306C10.2958 4.33306 11.3405 5.37773 11.3405 6.6664V19.3333C11.3405 20.6219 10.2958 21.6666 9.0071 21.6666H3.00092C1.71219 21.6666 0.66748 20.6219 0.66748 19.3333V6.6664C0.66748 5.37773 1.71219 4.33306 3.00092 4.33306H9.0071ZM9.0071 6.33306H3.00092C2.81682 6.33306 2.66757 6.4823 2.66757 6.6664V19.3333C2.66757 19.5174 2.81682 19.6666 3.00092 19.6666H9.0071C9.19122 19.6666 9.34045 19.5174 9.34045 19.3333V6.6664C9.34045 6.4823 9.19122 6.33306 9.0071 6.33306ZM6.33737 16.3333C6.88967 16.3333 7.33741 16.781 7.33741 17.3333C7.33741 17.8395 6.96118 18.2579 6.47307 18.3242L6.33737 18.3333H5.67067C5.11835 18.3333 4.67062 17.8855 4.67062 17.3333C4.67062 16.827 5.04684 16.4086 5.53497 16.3423L5.67067 16.3333H6.33737ZM24.3344 0.333252C25.9222 0.333252 27.222 1.5668 27.3276 3.12785L27.3346 3.33325V14.6666C27.3346 16.2545 26.1009 17.5541 24.5398 17.6597L24.3344 17.6666H12.6667V15.6666H24.3344C24.8407 15.6666 25.2592 15.2903 25.3253 14.8023L25.3345 14.6666V3.33325C25.3345 2.82699 24.9582 2.4086 24.47 2.34238L24.3344 2.33325H9.00035C8.56511 2.33325 8.19481 2.61129 8.05739 2.99944L6.01847 3.00051C6.17615 1.57168 7.33728 0.445145 8.78166 0.341105L9.00035 0.333252H24.3344ZM18.3342 12.3333C18.8865 12.3333 19.3342 12.781 19.3342 13.3333C19.3342 13.8855 18.8865 14.3333 18.3342 14.3333H15.0007C14.4483 14.3333 14.0006 13.8855 14.0006 13.3333C14.0006 12.781 14.4483 12.3333 15.0007 12.3333H18.3342Z" fill="#FF4D6D"/>
</svg>
