<svg width="20" height="20" viewBox="0 0 20 20" fill="none" xmlns="http://www.w3.org/2000/svg">
<path d="M8.01619 0.86448C8.11934 0.89957 8.22011 0.941306 8.31782 0.989422L9.49372 1.56834C9.81281 1.72546 10.1868 1.72546 10.5059 1.56834L11.6818 0.989422C12.9308 0.374467 14.4419 0.888497 15.0568 2.13753L15.1242 2.28633L15.1817 2.43918L15.6039 3.67998C15.7184 4.01673 15.9829 4.28119 16.3196 4.39575L17.5604 4.81783C18.8785 5.26619 19.5835 6.69816 19.1351 8.01619C19.1 8.11934 19.0583 8.22011 19.0102 8.31782L18.4312 9.49372C18.2741 9.81281 18.2741 10.1868 18.4312 10.5059L19.0102 11.6818C19.6252 12.9308 19.1111 14.4419 17.8621 15.0568C17.7643 15.1049 17.6636 15.1467 17.5604 15.1817L16.3196 15.6039C15.9829 15.7184 15.7184 15.9829 15.6039 16.3196L15.1817 17.5604C14.7334 18.8785 13.3015 19.5835 11.9834 19.1351C11.8803 19.1 11.7795 19.0583 11.6818 19.0102L10.5059 18.4312C10.1868 18.2741 9.81281 18.2741 9.49372 18.4312L8.31782 19.0102C7.0688 19.6252 5.55773 19.1111 4.94278 17.8621C4.89465 17.7643 4.85292 17.6636 4.81783 17.5604L4.39575 16.3196C4.28119 15.9829 4.01673 15.7184 3.67998 15.6039L2.43918 15.1817C1.12113 14.7334 0.41612 13.3015 0.86448 11.9834C0.89957 11.8803 0.941306 11.7795 0.989422 11.6818L1.56834 10.5059C1.72546 10.1868 1.72546 9.81281 1.56834 9.49372L0.989422 8.31782C0.374467 7.0688 0.888497 5.55773 2.13753 4.94278C2.23527 4.89465 2.33603 4.85292 2.43918 4.81783L3.67998 4.39575C4.01673 4.28119 4.28119 4.01673 4.39575 3.67998L4.81783 2.43918C5.26619 1.12113 6.69816 0.41612 8.01619 0.86448ZM6.11957 2.88199L5.69749 4.12279C5.44547 4.86366 4.86366 5.44547 4.12279 5.69749L2.88199 6.11957C2.83511 6.13552 2.78932 6.1545 2.74488 6.17637C2.17714 6.45589 1.94349 7.14274 2.22302 7.71049L2.80194 8.88634C3.14759 9.58842 3.14759 10.4112 2.80194 11.1133L2.22302 12.2891C2.20115 12.3336 2.18217 12.3794 2.16622 12.4262C1.96242 13.0254 2.28288 13.6762 2.88199 13.8801L4.12279 14.3021C4.86366 14.5542 5.44547 15.136 5.69749 15.8768L6.11957 17.1176C6.13552 17.1645 6.1545 17.2103 6.17637 17.2547C6.45589 17.8225 7.14274 18.0561 7.71049 17.7766L8.88634 17.1977C9.58842 16.852 10.4112 16.852 11.1133 17.1977L12.2891 17.7766C12.3336 17.7984 12.3794 17.8174 12.4262 17.8334C13.0254 18.0371 13.6762 17.7167 13.8801 17.1176L14.3021 15.8768C14.5542 15.136 15.136 14.5542 15.8768 14.3021L17.1176 13.8801C17.1645 13.8641 17.2103 13.8451 17.2547 13.8232C17.8225 13.5437 18.0561 12.8569 17.7766 12.2891L17.1977 11.1133C16.852 10.4112 16.852 9.58842 17.1977 8.88634L17.7766 7.71049C17.7984 7.66606 17.8174 7.62026 17.8334 7.57338C18.0371 6.97427 17.7167 6.32338 17.1176 6.11957L15.8768 5.69749C15.136 5.44547 14.5542 4.86366 14.3021 4.12279L13.8801 2.88199L13.8538 2.81252L13.8232 2.74488L13.7662 2.64239C13.4583 2.14994 12.8214 1.96096 12.2891 2.22302L11.1133 2.80194C10.4112 3.14759 9.58842 3.14759 8.88634 2.80194L7.71049 2.22302C7.66606 2.20115 7.62026 2.18217 7.57338 2.16622C6.97427 1.96242 6.32338 2.28288 6.11957 2.88199ZM8.21268 12.1896L13.1804 7.222C13.4489 6.95352 13.8841 6.95352 14.1526 7.222C14.3967 7.46608 14.4189 7.84802 14.2191 8.11717L14.1526 8.19426L8.65259 13.6943C8.39061 13.9563 7.97412 13.9603 7.70719 13.7198L7.63832 13.6482L5.34665 10.8982C5.10358 10.6066 5.14298 10.1731 5.43468 9.92997C5.69985 9.70905 6.08223 9.72152 6.3322 9.94472L6.40295 10.0181L8.21268 12.1896L13.1804 7.222L8.21268 12.1896Z" fill="#303339"/>
</svg>
