<svg width="93" height="102" viewBox="0 0 93 102" fill="none" xmlns="http://www.w3.org/2000/svg">
<path d="M7.00924 1H46.6343C49.9532 1 52.6436 3.6913 52.6436 7.00924V94.9908C52.6436 98.3096 49.9532 101 46.6343 101H7.00924C3.69039 101 1 98.3096 1 94.9908V7.00924C1 3.6913 3.69039 1 7.00924 1Z" fill="#C9C5BD"/>
<path d="M7.00924 1H46.6343C49.9532 1 52.6436 3.6913 52.6436 7.00924V94.9908C52.6436 98.3096 49.9532 101 46.6343 101H7.00924C3.69039 101 1 98.3096 1 94.9908V7.00924C1 3.6913 3.69039 1 7.00924 1Z" stroke="#959595" stroke-width="1.327"/>
<path d="M4.60303 10.6396H49.0402V88.9517H4.60303V10.6396Z" fill="#6A6A6A"/>
<path d="M4.60303 10.6396H49.0402V88.9517H4.60303V10.6396Z" stroke="#969696" stroke-width="1.327"/>
<path d="M25.4427 91.5559H27.8216C29.8183 91.5559 31.4365 93.1741 31.4365 95.17C31.4365 97.1658 29.8183 98.784 27.8216 98.784H25.4427C23.4468 98.784 21.8286 97.1658 21.8286 95.17C21.8286 93.1741 23.4468 91.5559 25.4427 91.5559Z" fill="#9B9B9B"/>
<path d="M25.4424 92.1572H27.8213C29.4857 92.1572 30.834 93.5056 30.834 95.1709C30.834 96.8353 29.4857 98.1828 27.8213 98.1828H25.4424C23.778 98.1828 22.4287 96.8353 22.4287 95.1709C22.4287 93.5056 23.778 92.1572 25.4424 92.1572Z" stroke="#7C736C" stroke-width="1.327"/>
<path d="M22.6227 4.61499H31.0208C31.6864 4.61499 32.227 5.15379 32.227 5.81937C32.227 6.48495 31.6864 7.02557 31.0208 7.02557H22.6227C21.9571 7.02557 21.4165 6.48495 21.4165 5.81937C21.4165 5.15379 21.9571 4.61499 22.6227 4.61499Z" fill="#7C736C"/>
<path d="M36.2067 34.4448H41.2941C42.2558 34.4448 43.0346 35.2263 43.0346 36.1862V41.4864M43.0346 60.5872V65.8321C43.0346 66.7966 42.2585 67.5771 41.2995 67.5771H35.9034M16.693 67.5771H11.746C10.7861 67.5771 10.0073 66.792 10.0073 65.8321V60.7275M10.0073 41.0273V36.1916C10.0073 35.2281 10.7816 34.4448 11.746 34.4448H16.7573" stroke="#C4C4C4" stroke-width="1.327"/>
<path d="M16.3944 37.7583H36.3165C37.817 37.7583 39.0332 38.9754 39.0332 40.475V60.3971C39.0332 61.8967 37.817 63.1137 36.3165 63.1137H16.3944C14.8939 63.1137 13.6777 61.8967 13.6777 60.3971V40.475C13.6777 38.9754 14.8939 37.7583 16.3944 37.7583Z" stroke="#C4C4C4"/>
<path d="M18.2056 40.4749H22.7334C23.7331 40.4749 24.5445 41.2862 24.5445 42.286V46.8137C24.5445 47.8134 23.7331 48.6248 22.7334 48.6248H18.2056C17.2059 48.6248 16.3945 47.8134 16.3945 46.8137V42.286C16.3945 41.2862 17.2059 40.4749 18.2056 40.4749Z" stroke="#C4C4C4"/>
<path d="M18.2056 52.2471H22.7334C23.7331 52.2471 24.5445 53.0584 24.5445 54.0582V58.5859C24.5445 59.5857 23.7331 60.397 22.7334 60.397H18.2056C17.2059 60.397 16.3945 59.5857 16.3945 58.5859V54.0582C16.3945 53.0584 17.2059 52.2471 18.2056 52.2471Z" stroke="#C4C4C4"/>
<path d="M29.9776 40.4749H34.5054C35.5051 40.4749 36.3165 41.2862 36.3165 42.286V46.8137C36.3165 47.8134 35.5051 48.6248 34.5054 48.6248H29.9776C28.9779 48.6248 28.1665 47.8134 28.1665 46.8137V42.286C28.1665 41.2862 28.9779 40.4749 29.9776 40.4749Z" stroke="#C4C4C4"/>
<path d="M19.1111 42.2861H21.8278C22.3276 42.2861 22.7333 42.6909 22.7333 43.1917V45.9083C22.7333 46.4091 22.3276 46.8139 21.8278 46.8139H19.1111C18.6113 46.8139 18.2056 46.4091 18.2056 45.9083V43.1917C18.2056 42.6909 18.6113 42.2861 19.1111 42.2861Z" fill="#C4C4C4"/>
<path d="M19.1111 54.0583H21.8278C22.3276 54.0583 22.7333 54.4631 22.7333 54.9639V57.6806C22.7333 58.1813 22.3276 58.5861 21.8278 58.5861H19.1111C18.6113 58.5861 18.2056 58.1813 18.2056 57.6806V54.9639C18.2056 54.4631 18.6113 54.0583 19.1111 54.0583Z" fill="#C4C4C4"/>
<path d="M30.8831 42.2861H33.5997C34.0996 42.2861 34.5053 42.6909 34.5053 43.1917V45.9083C34.5053 46.4091 34.0996 46.8139 33.5997 46.8139H30.8831C30.3832 46.8139 29.9775 46.4091 29.9775 45.9083V43.1917C29.9775 42.6909 30.3832 42.2861 30.8831 42.2861Z" fill="#C4C4C4"/>
<path d="M28.3476 52.2471H28.8909C28.9906 52.2471 29.0721 52.3286 29.0721 52.4282V52.9715C29.0721 53.0711 28.9906 53.1526 28.8909 53.1526H28.3476C28.2471 53.1526 28.1665 53.0711 28.1665 52.9715V52.4282C28.1665 52.3286 28.2471 52.2471 28.3476 52.2471Z" fill="#C4C4C4"/>
<path d="M28.3476 54.0583H28.8909C28.9906 54.0583 29.0721 54.1398 29.0721 54.2395V54.7828C29.0721 54.8824 28.9906 54.9639 28.8909 54.9639H28.3476C28.2471 54.9639 28.1665 54.8824 28.1665 54.7828V54.2395C28.1665 54.1398 28.2471 54.0583 28.3476 54.0583Z" fill="#C4C4C4"/>
<path d="M28.3476 55.8694H28.8909C28.9906 55.8694 29.0721 55.9509 29.0721 56.0505V56.5938C29.0721 56.6934 28.9906 56.7749 28.8909 56.7749H28.3476C28.2471 56.7749 28.1665 56.6934 28.1665 56.5938V56.0505C28.1665 55.9509 28.2471 55.8694 28.3476 55.8694Z" fill="#C4C4C4"/>
<path d="M28.3476 57.6804H28.8909C28.9906 57.6804 29.0721 57.7619 29.0721 57.8615V58.4049C29.0721 58.5045 28.9906 58.586 28.8909 58.586H28.3476C28.2471 58.586 28.1665 58.5045 28.1665 58.4049V57.8615C28.1665 57.7619 28.2471 57.6804 28.3476 57.6804Z" fill="#C4C4C4"/>
<path d="M28.3476 59.4915H28.8909C28.9906 59.4915 29.0721 59.573 29.0721 59.6726V60.2159C29.0721 60.3155 28.9906 60.397 28.8909 60.397H28.3476C28.2471 60.397 28.1665 60.3155 28.1665 60.2159V59.6726C28.1665 59.573 28.2471 59.4915 28.3476 59.4915Z" fill="#C4C4C4"/>
<path d="M30.1586 52.2471H30.702C30.8016 52.2471 30.8831 52.3286 30.8831 52.4282V52.9715C30.8831 53.0711 30.8016 53.1526 30.702 53.1526H30.1586C30.0581 53.1526 29.9775 53.0711 29.9775 52.9715V52.4282C29.9775 52.3286 30.0581 52.2471 30.1586 52.2471Z" fill="#C4C4C4"/>
<path d="M30.1586 54.0583H30.702C30.8016 54.0583 30.8831 54.1398 30.8831 54.2395V54.7828C30.8831 54.8824 30.8016 54.9639 30.702 54.9639H30.1586C30.0581 54.9639 29.9775 54.8824 29.9775 54.7828V54.2395C29.9775 54.1398 30.0581 54.0583 30.1586 54.0583Z" fill="#C4C4C4"/>
<path d="M30.1586 55.8694H30.702C30.8016 55.8694 30.8831 55.9509 30.8831 56.0505V56.5938C30.8831 56.6934 30.8016 56.7749 30.702 56.7749H30.1586C30.0581 56.7749 29.9775 56.6934 29.9775 56.5938V56.0505C29.9775 55.9509 30.0581 55.8694 30.1586 55.8694Z" fill="#C4C4C4"/>
<path d="M30.1586 57.6804H30.702C30.8016 57.6804 30.8831 57.7619 30.8831 57.8615V58.4049C30.8831 58.5045 30.8016 58.586 30.702 58.586H30.1586C30.0581 58.586 29.9775 58.5045 29.9775 58.4049V57.8615C29.9775 57.7619 30.0581 57.6804 30.1586 57.6804Z" fill="#C4C4C4"/>
<path d="M30.1586 59.4915H30.702C30.8016 59.4915 30.8831 59.573 30.8831 59.6726V60.2159C30.8831 60.3155 30.8016 60.397 30.702 60.397H30.1586C30.0581 60.397 29.9775 60.3155 29.9775 60.2159V59.6726C29.9775 59.573 30.0581 59.4915 30.1586 59.4915Z" fill="#C4C4C4"/>
<path d="M31.9697 52.2471H32.513C32.6126 52.2471 32.6941 52.3286 32.6941 52.4282V52.9715C32.6941 53.0711 32.6126 53.1526 32.513 53.1526H31.9697C31.8692 53.1526 31.7886 53.0711 31.7886 52.9715V52.4282C31.7886 52.3286 31.8692 52.2471 31.9697 52.2471Z" fill="#C4C4C4"/>
<path d="M31.9697 54.0583H32.513C32.6126 54.0583 32.6941 54.1398 32.6941 54.2395V54.7828C32.6941 54.8824 32.6126 54.9639 32.513 54.9639H31.9697C31.8692 54.9639 31.7886 54.8824 31.7886 54.7828V54.2395C31.7886 54.1398 31.8692 54.0583 31.9697 54.0583Z" fill="#C4C4C4"/>
<path d="M31.9697 55.8694H32.513C32.6126 55.8694 32.6941 55.9509 32.6941 56.0505V56.5938C32.6941 56.6934 32.6126 56.7749 32.513 56.7749H31.9697C31.8692 56.7749 31.7886 56.6934 31.7886 56.5938V56.0505C31.7886 55.9509 31.8692 55.8694 31.9697 55.8694Z" fill="#C4C4C4"/>
<path d="M31.9697 57.6804H32.513C32.6126 57.6804 32.6941 57.7619 32.6941 57.8615V58.4049C32.6941 58.5045 32.6126 58.586 32.513 58.586H31.9697C31.8692 58.586 31.7886 58.5045 31.7886 58.4049V57.8615C31.7886 57.7619 31.8692 57.6804 31.9697 57.6804Z" fill="#C4C4C4"/>
<path d="M31.9697 59.4915H32.513C32.6126 59.4915 32.6941 59.573 32.6941 59.6726V60.2159C32.6941 60.3155 32.6126 60.397 32.513 60.397H31.9697C31.8692 60.397 31.7886 60.3155 31.7886 60.2159V59.6726C31.7886 59.573 31.8692 59.4915 31.9697 59.4915Z" fill="#C4C4C4"/>
<path d="M33.7807 52.2471H34.3241C34.4237 52.2471 34.5052 52.3286 34.5052 52.4282V52.9715C34.5052 53.0711 34.4237 53.1526 34.3241 53.1526H33.7807C33.6802 53.1526 33.5996 53.0711 33.5996 52.9715V52.4282C33.5996 52.3286 33.6802 52.2471 33.7807 52.2471Z" fill="#C4C4C4"/>
<path d="M33.7807 54.0583H34.3241C34.4237 54.0583 34.5052 54.1398 34.5052 54.2395V54.7828C34.5052 54.8824 34.4237 54.9639 34.3241 54.9639H33.7807C33.6802 54.9639 33.5996 54.8824 33.5996 54.7828V54.2395C33.5996 54.1398 33.6802 54.0583 33.7807 54.0583Z" fill="#C4C4C4"/>
<path d="M33.7807 55.8694H34.3241C34.4237 55.8694 34.5052 55.9509 34.5052 56.0505V56.5938C34.5052 56.6934 34.4237 56.7749 34.3241 56.7749H33.7807C33.6802 56.7749 33.5996 56.6934 33.5996 56.5938V56.0505C33.5996 55.9509 33.6802 55.8694 33.7807 55.8694Z" fill="#C4C4C4"/>
<path d="M33.7807 57.6804H34.3241C34.4237 57.6804 34.5052 57.7619 34.5052 57.8615V58.4049C34.5052 58.5045 34.4237 58.586 34.3241 58.586H33.7807C33.6802 58.586 33.5996 58.5045 33.5996 58.4049V57.8615C33.5996 57.7619 33.6802 57.6804 33.7807 57.6804Z" fill="#C4C4C4"/>
<path d="M33.7807 59.4915H34.3241C34.4237 59.4915 34.5052 59.573 34.5052 59.6726V60.2159C34.5052 60.3155 34.4237 60.397 34.3241 60.397H33.7807C33.6802 60.397 33.5996 60.3155 33.5996 60.2159V59.6726C33.5996 59.573 33.6802 59.4915 33.7807 59.4915Z" fill="#C4C4C4"/>
<path d="M35.5918 52.2471H36.1351C36.2347 52.2471 36.3162 52.3286 36.3162 52.4282V52.9715C36.3162 53.0711 36.2347 53.1526 36.1351 53.1526H35.5918C35.4912 53.1526 35.4106 53.0711 35.4106 52.9715V52.4282C35.4106 52.3286 35.4912 52.2471 35.5918 52.2471Z" fill="#C4C4C4"/>
<path d="M35.5918 54.0583H36.1351C36.2347 54.0583 36.3162 54.1398 36.3162 54.2395V54.7828C36.3162 54.8824 36.2347 54.9639 36.1351 54.9639H35.5918C35.4912 54.9639 35.4106 54.8824 35.4106 54.7828V54.2395C35.4106 54.1398 35.4912 54.0583 35.5918 54.0583Z" fill="#C4C4C4"/>
<path d="M35.5918 55.8694H36.1351C36.2347 55.8694 36.3162 55.9509 36.3162 56.0505V56.5938C36.3162 56.6934 36.2347 56.7749 36.1351 56.7749H35.5918C35.4912 56.7749 35.4106 56.6934 35.4106 56.5938V56.0505C35.4106 55.9509 35.4912 55.8694 35.5918 55.8694Z" fill="#C4C4C4"/>
<path d="M35.5918 57.6804H36.1351C36.2347 57.6804 36.3162 57.7619 36.3162 57.8615V58.4049C36.3162 58.5045 36.2347 58.586 36.1351 58.586H35.5918C35.4912 58.586 35.4106 58.5045 35.4106 58.4049V57.8615C35.4106 57.7619 35.4912 57.6804 35.5918 57.6804Z" fill="#C4C4C4"/>
<path d="M35.5918 59.4915H36.1351C36.2347 59.4915 36.3162 59.573 36.3162 59.6726V60.2159C36.3162 60.3155 36.2347 60.397 36.1351 60.397H35.5918C35.4912 60.397 35.4106 60.3155 35.4106 60.2159V59.6726C35.4106 59.573 35.4912 59.4915 35.5918 59.4915Z" fill="#C4C4C4"/>
<path d="M29.2534 53.1526H29.7967C29.8963 53.1526 29.9778 53.2341 29.9778 53.3337V53.877C29.9778 53.9766 29.8963 54.0581 29.7967 54.0581H29.2534C29.1529 54.0581 29.0723 53.9766 29.0723 53.877V53.3337C29.0723 53.2341 29.1529 53.1526 29.2534 53.1526Z" fill="#C4C4C4"/>
<path d="M29.2534 54.9639H29.7967C29.8963 54.9639 29.9778 55.0454 29.9778 55.145V55.6883C29.9778 55.7879 29.8963 55.8694 29.7967 55.8694H29.2534C29.1529 55.8694 29.0723 55.7879 29.0723 55.6883V55.145C29.0723 55.0454 29.1529 54.9639 29.2534 54.9639Z" fill="#C4C4C4"/>
<path d="M29.2534 56.7749H29.7967C29.8963 56.7749 29.9778 56.8564 29.9778 56.956V57.4993C29.9778 57.599 29.8963 57.6805 29.7967 57.6805H29.2534C29.1529 57.6805 29.0723 57.599 29.0723 57.4993V56.956C29.0723 56.8564 29.1529 56.7749 29.2534 56.7749Z" fill="#C4C4C4"/>
<path d="M29.2534 58.5859H29.7967C29.8963 58.5859 29.9778 58.6674 29.9778 58.767V59.3104C29.9778 59.41 29.8963 59.4915 29.7967 59.4915H29.2534C29.1529 59.4915 29.0723 59.41 29.0723 59.3104V58.767C29.0723 58.6674 29.1529 58.5859 29.2534 58.5859Z" fill="#C4C4C4"/>
<path d="M31.0644 53.1526H31.6077C31.7074 53.1526 31.7889 53.2341 31.7889 53.3337V53.877C31.7889 53.9766 31.7074 54.0581 31.6077 54.0581H31.0644C30.9639 54.0581 30.8833 53.9766 30.8833 53.877V53.3337C30.8833 53.2341 30.9639 53.1526 31.0644 53.1526Z" fill="#C4C4C4"/>
<path d="M31.0644 54.9639H31.6077C31.7074 54.9639 31.7889 55.0454 31.7889 55.145V55.6883C31.7889 55.7879 31.7074 55.8694 31.6077 55.8694H31.0644C30.9639 55.8694 30.8833 55.7879 30.8833 55.6883V55.145C30.8833 55.0454 30.9639 54.9639 31.0644 54.9639Z" fill="#C4C4C4"/>
<path d="M31.0644 56.7749H31.6077C31.7074 56.7749 31.7889 56.8564 31.7889 56.956V57.4993C31.7889 57.599 31.7074 57.6805 31.6077 57.6805H31.0644C30.9639 57.6805 30.8833 57.599 30.8833 57.4993V56.956C30.8833 56.8564 30.9639 56.7749 31.0644 56.7749Z" fill="#C4C4C4"/>
<path d="M31.0644 58.5859H31.6077C31.7074 58.5859 31.7889 58.6674 31.7889 58.767V59.3104C31.7889 59.41 31.7074 59.4915 31.6077 59.4915H31.0644C30.9639 59.4915 30.8833 59.41 30.8833 59.3104V58.767C30.8833 58.6674 30.9639 58.5859 31.0644 58.5859Z" fill="#C4C4C4"/>
<path d="M32.8754 53.1526H33.4188C33.5184 53.1526 33.5999 53.2341 33.5999 53.3337V53.877C33.5999 53.9766 33.5184 54.0581 33.4188 54.0581H32.8754C32.7749 54.0581 32.6943 53.9766 32.6943 53.877V53.3337C32.6943 53.2341 32.7749 53.1526 32.8754 53.1526Z" fill="#C4C4C4"/>
<path d="M32.8754 54.9639H33.4188C33.5184 54.9639 33.5999 55.0454 33.5999 55.145V55.6883C33.5999 55.7879 33.5184 55.8694 33.4188 55.8694H32.8754C32.7749 55.8694 32.6943 55.7879 32.6943 55.6883V55.145C32.6943 55.0454 32.7749 54.9639 32.8754 54.9639Z" fill="#C4C4C4"/>
<path d="M32.8754 56.7749H33.4188C33.5184 56.7749 33.5999 56.8564 33.5999 56.956V57.4993C33.5999 57.599 33.5184 57.6805 33.4188 57.6805H32.8754C32.7749 57.6805 32.6943 57.599 32.6943 57.4993V56.956C32.6943 56.8564 32.7749 56.7749 32.8754 56.7749Z" fill="#C4C4C4"/>
<path d="M32.8754 58.5859H33.4188C33.5184 58.5859 33.5999 58.6674 33.5999 58.767V59.3104C33.5999 59.41 33.5184 59.4915 33.4188 59.4915H32.8754C32.7749 59.4915 32.6943 59.41 32.6943 59.3104V58.767C32.6943 58.6674 32.7749 58.5859 32.8754 58.5859Z" fill="#C4C4C4"/>
<path d="M34.6865 53.1526H35.2298C35.3294 53.1526 35.4109 53.2341 35.4109 53.3337V53.877C35.4109 53.9766 35.3294 54.0581 35.2298 54.0581H34.6865C34.586 54.0581 34.5054 53.9766 34.5054 53.877V53.3337C34.5054 53.2341 34.586 53.1526 34.6865 53.1526Z" fill="#C4C4C4"/>
<path d="M34.6865 54.9639H35.2298C35.3294 54.9639 35.4109 55.0454 35.4109 55.145V55.6883C35.4109 55.7879 35.3294 55.8694 35.2298 55.8694H34.6865C34.586 55.8694 34.5054 55.7879 34.5054 55.6883V55.145C34.5054 55.0454 34.586 54.9639 34.6865 54.9639Z" fill="#C4C4C4"/>
<path d="M34.6865 56.7749H35.2298C35.3294 56.7749 35.4109 56.8564 35.4109 56.956V57.4993C35.4109 57.599 35.3294 57.6805 35.2298 57.6805H34.6865C34.586 57.6805 34.5054 57.599 34.5054 57.4993V56.956C34.5054 56.8564 34.586 56.7749 34.6865 56.7749Z" fill="#C4C4C4"/>
<path d="M34.6865 58.5859H35.2298C35.3294 58.5859 35.4109 58.6674 35.4109 58.767V59.3104C35.4109 59.41 35.3294 59.4915 35.2298 59.4915H34.6865C34.586 59.4915 34.5054 59.41 34.5054 59.3104V58.767C34.5054 58.6674 34.586 58.5859 34.6865 58.5859Z" fill="#C4C4C4"/>
</svg>
