<svg width="254" height="249" viewBox="0 0 254 249" fill="none" xmlns="http://www.w3.org/2000/svg">
<path d="M252 227.859C252 238.813 243.116 247.701 232.162 247.701H21.8379C10.8839 247.701 2 238.813 2 227.859V21.8379C2 10.8795 10.8839 2 21.8379 2H232.162C243.116 2 252 10.8795 252 21.8379V227.859Z" stroke="#6B6B6B" stroke-width="2.162" stroke-miterlimit="10"/>
<path d="M202.202 45.0769L176.031 45.0769L176.031 72.2968L202.202 72.2968L202.202 45.0769Z" fill="white"/>
<path d="M77.6867 45.077L51.5151 45.0769L51.515 72.2968L77.6866 72.2969L77.6867 45.077Z" fill="white"/>
<path d="M51.5155 202.08L77.687 202.08L77.6872 174.86L51.5156 174.86L51.5155 202.08Z" fill="white"/>
<path d="M33.6719 220.71L95.5817 220.71L95.5817 156.334L33.6719 156.334L33.6719 220.71ZM42.0493 165.042L87.2043 165.042L87.2043 211.998L42.0492 211.998L42.0493 165.042Z" fill="white"/>
<path d="M95.5802 26.5045L33.6704 26.5042L33.6701 90.8805L95.5799 90.8808L95.5802 26.5045ZM87.2025 82.1686L42.0475 82.1684L42.0477 35.2075L87.2028 35.2077L87.2025 82.1686Z" fill="white"/>
<path d="M158.422 90.8736L220.332 90.874L220.332 26.4977L158.422 26.4973L158.422 90.8736ZM211.954 82.1662L166.795 82.166L166.795 35.2095L211.955 35.2097L211.954 82.1662Z" fill="white"/>
<path d="M148.992 26.1719H140.095V35.4302H148.992V26.1719Z" fill="white"/>
<path d="M167.059 155.788H158.162V165.046H167.059V155.788Z" fill="white"/>
<path d="M87.2008 109.554H104.766V118.332H113.438V137.412H121.094H122.34H131.404V128.154H131.435H138.082H140.332V118.931H148.996V109.677H140.332V100.3H148.978V109.554H158.166V118.777H149.265V128.035H158.166H167.063V109.554H176.027V128.035H184.668V128.132H193.565V118.874H184.928V109.554H193.565V100.3H148.996V82.0915H140.332V72.842H148.996V63.5882V54.3343V45.0804H113.663V35.4345H131.008V26.1807H104.836V27.3523H104.766V100.3H87.2008V109.51H78.3081V128.035H86.6767H104.484V118.777H87.2008V109.554ZM113.663 82.0915H122.34V72.842H113.663V54.3343H122.512V63.5882H131.404V54.3343H140.099V63.5882V72.842H131.435V82.0915H140.099V91.1956H133.633H131.435H131.404V81.7788H122.512V99.9782H127.788H130.387H131.404H131.435V119.213H131.404H127.52H122.34V100.45H113.663V82.0915Z" fill="white"/>
<path d="M104.572 220.82H131.272V211.421H104.572V220.82Z" fill="white"/>
<path d="M77.6916 146.763V137.544V137.514V128.291H69.0719H68.7856H60.1704V137.544H68.7856V146.763H77.6916Z" fill="white"/>
<path d="M59.7255 137.509H42.5744V128.321H59.7255V119.208H68.79V109.549H77.6915V100.295H68.79V109.131H42.5744V100.295H33.6729V109.549H42.2088V119.067H33.6729V128.031V128.321V137.509V139.725V146.763H59.7255V137.509Z" fill="white"/>
<path d="M95.5783 137.509H86.6768V146.767H95.5783H104.48V137.509H95.5783Z" fill="white"/>
<path d="M149.269 183.844H158.171H167.063V174.595H158.171H149.269V183.844Z" fill="white"/>
<path d="M122.371 165.046H131.004V155.792H122.565V147.08H113.659H104.762V155.792V156.334V165.046H113.469V174.3H122.371V165.046Z" fill="white"/>
<path d="M211.435 109.558H220.332V100.3H211.435V109.558Z" fill="white"/>
<path d="M211.104 109.549H202.198V146.767H208.334H211.104H220.336V128.158H211.104V109.549Z" fill="white"/>
<path d="M211.633 221.001H220.336V211.258H211.633V221.001Z" fill="white"/>
<path d="M104.762 183.844H113.659V174.586H104.762V183.844Z" fill="white"/>
<path d="M211.364 155.814H202.462V155.788H193.561V147.076H184.924V137.853H176.027H175.96V128.599H167.063V137.853H158.166H158.153H140.354V147.106H140.359V155.942V156.329V165.367H140.332H135.245H131.435V183.893H131.404H125.036H122.503V193.147H113.659V202.401H122.56H131.457H140.332V202.326V201.357V193.147H140.359H149.256V183.893H140.359H140.332V174.141H140.359H148.974V165.367V156.329H149.256H158.162V147.106H158.166H176.027V174.295V174.815V202.326H167.121V193.067H158.224V202.326H149.318V211.258H140.359V220.82H167.063V211.258H176.027H184.862V221.005H193.561V211.258H184.924V202.031H193.561V192.777H184.924V183.84H193.561V174.591H184.924V174.295V156.329H193.561V165.042H202.462V183.84H193.75V192.777H202.462H211.364H220.327V183.84H211.364V155.814Z" fill="white"/>
</svg>
